<?xml version="1.0" standalone="yes"?>

<svg version="1.1" viewBox="0.0 0.0 215.5984251968504 283.46456692913387" fill="none" stroke="none" stroke-linecap="square" stroke-miterlimit="10" xmlns="http://www.w3.org/2000/svg" xmlns:xlink="http://www.w3.org/1999/xlink"><clipPath id="p.0"><path d="m0 0l215.59842 0l0 283.46457l-215.59842 0l0 -283.46457z" clip-rule="nonzero"></path></clipPath><g clip-path="url(#p.0)"><path fill="#000000" fill-opacity="0.0" d="m0 0l215.59842 0l0 283.46457l-215.59842 0z" fill-rule="nonzero"></path><path fill="#000000" fill-opacity="0.0" d="m98.93307 55.50656l20.818901 0l0 27.748032l-20.818901 0z" fill-rule="nonzero"></path><path fill="#000000" d="m106.27691 74.74308l1.125 0.15625q0.0625 0.515625 0.375 0.75q0.4375 0.328125 1.171875 0.328125q0.78125 0 1.21875 -0.328125q0.4375 -0.3125 0.578125 -0.890625q0.09375 -0.34375 0.09375 -1.453125q-0.75 0.875 -1.875 0.875q-1.390625 0 -2.15625 -1.0q-0.75 -1.0 -0.75 -2.40625q0 -0.96875 0.34375 -1.78125q0.359375 -0.8125 1.015625 -1.25q0.65625 -0.453125 1.5625 -0.453125q1.1875 0 1.96875 0.96875l0 -0.8125l1.046875 0l0 5.8125q0 1.578125 -0.328125 2.234375q-0.3125 0.65625 -1.015625 1.03125q-0.6875 0.390625 -1.703125 0.390625q-1.203125 0 -1.953125 -0.546875q-0.734375 -0.53125 -0.71875 -1.625zm0.953125 -4.046875q0 1.3125 0.515625 1.921875q0.53125 0.609375 1.328125 0.609375q0.796875 0 1.328125 -0.59375q0.53125 -0.609375 0.53125 -1.90625q0 -1.234375 -0.546875 -1.859375q-0.546875 -0.640625 -1.328125 -0.640625q-0.765625 0 -1.296875 0.625q-0.53125 0.625 -0.53125 1.84375z" fill-rule="nonzero"></path><path fill="#efefef" d="m62.05512 4.186352l120.81889 0l0 58.299213l-120.81889 0z" fill-rule="nonzero"></path><path stroke="#434343" stroke-width="1.0" stroke-linejoin="round" stroke-linecap="butt" stroke-dasharray="1.0,3.0" d="m62.05512 4.186352l120.81889 0l0 58.299213l-120.81889 0z" fill-rule="nonzero"></path><path fill="#ff0000" d="m91.01312 24.750656l13.070869 0l0 13.070866l-13.070869 0z" fill-rule="nonzero"></path><path stroke="#000000" stroke-width="1.0" stroke-linejoin="round" stroke-linecap="butt" d="m91.01312 24.750656l13.070869 0l0 13.070866l-13.070869 0z" fill-rule="nonzero"></path><path fill="#00ff00" d="m115.38058 37.82152l13.070869 0l0 13.070866l-13.070869 0z" fill-rule="nonzero"></path><path stroke="#000000" stroke-width="1.0" stroke-linejoin="round" stroke-linecap="butt" d="m115.38058 37.82152l13.070869 0l0 13.070866l-13.070869 0z" fill-rule="nonzero"></path><path fill="#00ffff" d="m115.38058 11.6797905l13.070869 0l0 13.070866l-13.070869 0z" fill-rule="nonzero"></path><path stroke="#000000" stroke-width="1.0" stroke-linejoin="round" stroke-linecap="butt" d="m115.38058 11.6797905l13.070869 0l0 13.070866l-13.070869 0z" fill-rule="nonzero"></path><path fill="#ff00ff" d="m141.7874 24.750656l13.070862 0l0 13.070866l-13.070862 0z" fill-rule="nonzero"></path><path stroke="#000000" stroke-width="1.0" stroke-linejoin="round" stroke-linecap="butt" d="m141.7874 24.750656l13.070862 0l0 13.070866l-13.070862 0z" fill-rule="nonzero"></path><path fill="#000000" fill-opacity="0.0" d="m141.7874 31.286089l-13.32283 -13.070866" fill-rule="nonzero"></path><path stroke="#000000" stroke-width="1.0" stroke-linejoin="round" stroke-linecap="butt" d="m141.7874 31.286089l-9.039886 -8.868919" fill-rule="evenodd"></path><path fill="#000000" stroke="#000000" stroke-width="1.0" stroke-linecap="butt" d="m133.90427 21.238123l-4.396164 -1.999094l2.0826569 4.3571873z" fill-rule="evenodd"></path><path fill="#000000" fill-opacity="0.0" d="m141.7874 31.286089l-13.32283 13.070868" fill-rule="nonzero"></path><path stroke="#000000" stroke-width="1.0" stroke-linejoin="round" stroke-linecap="butt" d="m141.7874 31.286089l-9.039886 8.868921" fill-rule="evenodd"></path><path fill="#000000" stroke="#000000" stroke-width="1.0" stroke-linecap="butt" d="m131.59076 38.97596l-2.0826569 4.357189l4.396164 -1.9990921z" fill-rule="evenodd"></path><path fill="#000000" fill-opacity="0.0" d="m115.38058 44.356956l-11.307083 -13.070868" fill-rule="nonzero"></path><path stroke="#000000" stroke-width="1.0" stroke-linejoin="round" stroke-linecap="butt" d="m115.38058 44.356956l-7.3816605 -8.533127" fill-rule="evenodd"></path><path fill="#000000" stroke="#000000" stroke-width="1.0" stroke-linecap="butt" d="m109.2481 34.743206l-4.218178 -2.3514938l1.7197952 4.512741z" fill-rule="evenodd"></path><path fill="#000000" fill-opacity="0.0" d="m115.38058 18.215223l-11.307083 13.070866" fill-rule="nonzero"></path><path stroke="#000000" stroke-width="1.0" stroke-linejoin="round" stroke-linecap="butt" d="m115.38058 18.215223l-7.3816605 8.533127" fill-rule="evenodd"></path><path fill="#000000" stroke="#000000" stroke-width="1.0" stroke-linecap="butt" d="m106.74972 25.667725l-1.7197952 4.512743l4.218178 -2.3514957z" fill-rule="evenodd"></path><path fill="#000000" fill-opacity="0.0" d="m91.01312 31.286089l-14.677162 0.094488144" fill-rule="nonzero"></path><path stroke="#000000" stroke-width="1.0" stroke-linejoin="round" stroke-linecap="butt" d="m91.01312 31.286089l-8.677284 0.055862427" fill-rule="evenodd"></path><path fill="#000000" stroke="#000000" stroke-width="1.0" stroke-linecap="butt" d="m82.3252 29.690254l-4.5273743 1.680912l4.5486374 1.6224823z" fill-rule="evenodd"></path><path fill="#000000" fill-opacity="0.0" d="m168.59055 31.380577l-13.732285 -0.094488144" fill-rule="nonzero"></path><path stroke="#000000" stroke-width="1.0" stroke-linejoin="round" stroke-linecap="butt" d="m168.59055 31.380577l-7.732422 -0.05320549" fill-rule="evenodd"></path><path fill="#000000" stroke="#000000" stroke-width="1.0" stroke-linecap="butt" d="m160.86949 29.67568l-4.549362 1.6204681l4.5266266 1.6829166z" fill-rule="evenodd"></path><path fill="#000000" fill-opacity="0.0" d="m36.669315 37.13451l25.385826 0" fill-rule="nonzero"></path><path stroke="#000000" stroke-width="1.0" stroke-linejoin="round" stroke-linecap="butt" d="m36.669315 37.13451l21.95874 0" fill-rule="evenodd"></path><path fill="#000000" stroke="#000000" stroke-width="1.0" stroke-linecap="butt" d="m58.628056 37.13451l-1.1245804 1.1245842l3.0897675 -1.1245842l-3.0897675 -1.1245842z" fill-rule="evenodd"></path><path fill="#000000" fill-opacity="0.0" d="m32.380577 20.251968l25.385826 0l0 16.88189l-25.385826 0z" fill-rule="nonzero"></path><path fill="#000000" d="m46.617252 32.664787q-0.625 0.53125 -1.21875 0.765625q-0.578125 0.21875 -1.25 0.21875q-1.125 0 -1.71875 -0.546875q-0.59375 -0.546875 -0.59375 -1.390625q0 -0.484375 0.21875 -0.890625q0.234375 -0.421875 0.59375 -0.671875q0.375 -0.25 0.828125 -0.375q0.328125 -0.078125 1.015625 -0.171875q1.375 -0.15625 2.03125 -0.390625q0.015625 -0.234375 0.015625 -0.296875q0 -0.703125 -0.328125 -0.984375q-0.4375 -0.390625 -1.296875 -0.390625q-0.8125 0 -1.203125 0.28125q-0.375 0.28125 -0.5625 1.0l-1.109375 -0.140625q0.140625 -0.71875 0.484375 -1.15625q0.359375 -0.453125 1.015625 -0.6875q0.671875 -0.234375 1.53125 -0.234375q0.875 0 1.40625 0.203125q0.546875 0.203125 0.796875 0.515625q0.25 0.296875 0.359375 0.765625q0.046875 0.296875 0.046875 1.0625l0 1.515625q0 1.59375 0.078125 2.015625q0.078125 0.421875 0.28125 0.8125l-1.1875 0q-0.171875 -0.359375 -0.234375 -0.828125zm-0.09375 -2.5625q-0.625 0.265625 -1.859375 0.4375q-0.703125 0.109375 -1.0 0.234375q-0.296875 0.125 -0.453125 0.375q-0.15625 0.234375 -0.15625 0.53125q0 0.453125 0.34375 0.765625q0.34375 0.296875 1.015625 0.296875q0.65625 0 1.171875 -0.28125q0.515625 -0.296875 0.765625 -0.796875q0.171875 -0.375 0.171875 -1.140625l0 -0.421875z" fill-rule="nonzero"></path><path fill="#6d9eeb" d="m15.850393 38.527557l0 0c0 -3.2093391 4.660469 -5.8110237 10.409449 -5.8110237l0 0c5.7489815 0 10.409451 2.6016846 10.409451 5.8110237l0 0c0 3.209343 -4.660469 5.8110237 -10.409451 5.8110237l0 0c-5.7489796 0 -10.409449 -2.6016808 -10.409449 -5.8110237z" fill-rule="nonzero"></path><path stroke="#3c78d8" stroke-width="1.0" stroke-linejoin="round" stroke-linecap="butt" d="m15.850393 38.527557l0 0c0 -3.2093391 4.660469 -5.8110237 10.409449 -5.8110237l0 0c5.7489815 0 10.409451 2.6016846 10.409451 5.8110237l0 0c0 3.209343 -4.660469 5.8110237 -10.409451 5.8110237l0 0c-5.7489796 0 -10.409449 -2.6016808 -10.409449 -5.8110237z" fill-rule="nonzero"></path><path fill="#6d9eeb" d="m20.448818 28.144358l0 0c0 -3.209341 2.6016846 -5.8110237 5.8110237 -5.8110237l0 0c1.5411797 0 3.0192356 0.6122303 4.1090145 1.7020092c1.0897789 1.089777 1.7020092 2.5678349 1.7020092 4.1090145l0 0c0 3.2093391 -2.6016827 5.811022 -5.8110237 5.811022l0 0c-3.2093391 0 -5.8110237 -2.6016827 -5.8110237 -5.811022z" fill-rule="nonzero"></path><path stroke="#3c78d8" stroke-width="1.0" stroke-linejoin="round" stroke-linecap="butt" d="m20.448818 28.144358l0 0c0 -3.209341 2.6016846 -5.8110237 5.8110237 -5.8110237l0 0c1.5411797 0 3.0192356 0.6122303 4.1090145 1.7020092c1.0897789 1.089777 1.7020092 2.5678349 1.7020092 4.1090145l0 0c0 3.2093391 -2.6016827 5.811022 -5.8110237 5.811022l0 0c-3.2093391 0 -5.8110237 -2.6016827 -5.8110237 -5.811022z" fill-rule="nonzero"></path><path fill="#efefef" d="m62.09974 126.07087l120.8189 0l0 77.5118l-120.8189 0z" fill-rule="nonzero"></path><path stroke="#ff0000" stroke-width="1.0" stroke-linejoin="round" stroke-linecap="butt" d="m62.09974 126.07087l120.8189 0l0 77.5118l-120.8189 0z" fill-rule="nonzero"></path><path fill="#000000" fill-opacity="0.0" d="m122.5538 126.07087l0 -18.614174" fill-rule="nonzero"></path><path stroke="#ff0000" stroke-width="1.0" stroke-linejoin="round" stroke-linecap="butt" d="m122.5538 122.64378l0 -15.187088" fill-rule="evenodd"></path><path fill="#ff0000" stroke="#ff0000" stroke-width="1.0" stroke-linecap="butt" d="m122.5538 122.643776l-1.1245804 -1.1245804l1.1245804 3.0897675l1.124588 -3.0897675z" fill-rule="evenodd"></path><path fill="#000000" fill-opacity="0.0" d="m106.291336 197.91339l0.22047424 29.196838" fill-rule="nonzero"></path><path stroke="#ff0000" stroke-width="1.0" stroke-linejoin="round" stroke-linecap="butt" d="m106.291336 197.91339l0.19459534 25.769867" fill-rule="evenodd"></path><path fill="#ff0000" stroke="#ff0000" stroke-width="1.0" stroke-linecap="butt" d="m106.48593 223.68324l-1.1330414 -1.1160583l1.1478806 3.081192l1.1012192 -3.098175z" fill-rule="evenodd"></path><path fill="#000000" fill-opacity="0.0" d="m98.93438 100.84252l20.818901 0l0 27.748024l-20.818901 0z" fill-rule="nonzero"></path><path fill="#000000" d="m110.87197 119.51653l0 -0.84375q-0.640625 1.0 -1.890625 1.0q-0.796875 0 -1.484375 -0.4375q-0.671875 -0.453125 -1.046875 -1.25q-0.375 -0.796875 -0.375 -1.828125q0 -1.015625 0.34375 -1.828125q0.34375 -0.828125 1.015625 -1.265625q0.671875 -0.4375 1.5 -0.4375q0.609375 0 1.078125 0.265625q0.484375 0.25 0.78125 0.65625l0 -3.34375l1.140625 0l0 9.3125l-1.0625 0zm-3.609375 -3.359375q0 1.296875 0.53125 1.9375q0.546875 0.640625 1.296875 0.640625q0.75 0 1.265625 -0.609375q0.53125 -0.625 0.53125 -1.875q0 -1.390625 -0.53125 -2.03125q-0.53125 -0.65625 -1.3125 -0.65625q-0.765625 0 -1.28125 0.625q-0.5 0.625 -0.5 1.96875z" fill-rule="nonzero"></path><path fill="#ff0000" d="m91.05905 164.81627l13.070869 0l0 13.070877l-13.070869 0z" fill-rule="nonzero"></path><path stroke="#000000" stroke-width="1.0" stroke-linejoin="round" stroke-linecap="butt" d="m91.05905 164.81627l13.070869 0l0 13.070877l-13.070869 0z" fill-rule="nonzero"></path><path fill="#00ff00" d="m115.426506 177.88715l13.070869 0l0 13.070862l-13.070869 0z" fill-rule="nonzero"></path><path stroke="#000000" stroke-width="1.0" stroke-linejoin="round" stroke-linecap="butt" d="m115.426506 177.88715l13.070869 0l0 13.070862l-13.070869 0z" fill-rule="nonzero"></path><path fill="#00ffff" d="m115.426506 151.7454l13.070869 0l0 13.070862l-13.070869 0z" fill-rule="nonzero"></path><path stroke="#000000" stroke-width="1.0" stroke-linejoin="round" stroke-linecap="butt" d="m115.426506 151.7454l13.070869 0l0 13.070862l-13.070869 0z" fill-rule="nonzero"></path><path fill="#ff00ff" d="m141.83333 164.81627l13.070877 0l0 13.070877l-13.070877 0z" fill-rule="nonzero"></path><path stroke="#000000" stroke-width="1.0" stroke-linejoin="round" stroke-linecap="butt" d="m141.83333 164.81627l13.070877 0l0 13.070877l-13.070877 0z" fill-rule="nonzero"></path><path fill="#000000" fill-opacity="0.0" d="m141.83333 171.3517l-13.32283 -13.070862" fill-rule="nonzero"></path><path stroke="#000000" stroke-width="1.0" stroke-linejoin="round" stroke-linecap="butt" d="m141.83333 171.3517l-9.039871 -8.868912" fill-rule="evenodd"></path><path fill="#000000" stroke="#000000" stroke-width="1.0" stroke-linecap="butt" d="m133.9502 161.30374l-4.3961487 -1.9990997l2.0826569 4.357193z" fill-rule="evenodd"></path><path fill="#000000" fill-opacity="0.0" d="m141.83333 171.3517l-13.32283 13.070877" fill-rule="nonzero"></path><path stroke="#000000" stroke-width="1.0" stroke-linejoin="round" stroke-linecap="butt" d="m141.83333 171.3517l-9.039871 8.868912" fill-rule="evenodd"></path><path fill="#000000" stroke="#000000" stroke-width="1.0" stroke-linecap="butt" d="m131.6367 179.04158l-2.0826569 4.357193l4.3961487 -1.9990997z" fill-rule="evenodd"></path><path fill="#000000" fill-opacity="0.0" d="m115.426506 184.42258l-11.307083 -13.070877" fill-rule="nonzero"></path><path stroke="#000000" stroke-width="1.0" stroke-linejoin="round" stroke-linecap="butt" d="m115.426506 184.42258l-7.3816605 -8.533127" fill-rule="evenodd"></path><path fill="#000000" stroke="#000000" stroke-width="1.0" stroke-linecap="butt" d="m109.29403 174.80882l-4.218178 -2.3515015l1.7198029 4.512741z" fill-rule="evenodd"></path><path fill="#000000" fill-opacity="0.0" d="m115.426506 158.28084l-11.307083 13.070862" fill-rule="nonzero"></path><path stroke="#000000" stroke-width="1.0" stroke-linejoin="round" stroke-linecap="butt" d="m115.426506 158.28084l-7.3816605 8.533127" fill-rule="evenodd"></path><path fill="#000000" stroke="#000000" stroke-width="1.0" stroke-linecap="butt" d="m106.795654 165.73334l-1.7198029 4.512741l4.218178 -2.3514862z" fill-rule="evenodd"></path><path fill="#000000" fill-opacity="0.0" d="m91.05905 171.3517l-14.677162 0.09449768" fill-rule="nonzero"></path><path stroke="#000000" stroke-width="1.0" stroke-linejoin="round" stroke-linecap="butt" d="m91.05905 171.3517l-8.677284 0.055877686" fill-rule="evenodd"></path><path fill="#000000" stroke="#000000" stroke-width="1.0" stroke-linecap="butt" d="m82.37113 169.75587l-4.5273666 1.6809082l4.5486298 1.6224823z" fill-rule="evenodd"></path><path fill="#000000" fill-opacity="0.0" d="m168.63649 171.4462l-13.732285 -0.09449768" fill-rule="nonzero"></path><path stroke="#000000" stroke-width="1.0" stroke-linejoin="round" stroke-linecap="butt" d="m168.63649 171.4462l-7.732437 -0.053207397" fill-rule="evenodd"></path><path fill="#000000" stroke="#000000" stroke-width="1.0" stroke-linecap="butt" d="m160.91542 169.7413l-4.549347 1.6204681l4.5266113 1.6829071z" fill-rule="evenodd"></path><path fill="#000000" fill-opacity="0.0" d="m82.75328 201.47769l20.818901 0l0 27.748032l-20.818901 0z" fill-rule="nonzero"></path><path fill="#000000" d="m91.36274 220.1517l-1.0625 0l0 -9.3125l1.15625 0l0 3.328125q0.71875 -0.90625 1.84375 -0.90625q0.625 0 1.171875 0.25q0.5625 0.25 0.921875 0.703125q0.359375 0.453125 0.5625 1.09375q0.203125 0.640625 0.203125 1.375q0 1.734375 -0.859375 2.6875q-0.859375 0.9375 -2.0625 0.9375q-1.1875 0 -1.875 -1.0l0 0.84375zm-0.015625 -3.421875q0 1.21875 0.34375 1.75q0.53125 0.890625 1.453125 0.890625q0.75 0 1.296875 -0.65625q0.546875 -0.65625 0.546875 -1.9375q0 -1.328125 -0.53125 -1.953125q-0.515625 -0.625 -1.265625 -0.625q-0.75 0 -1.296875 0.65625q-0.546875 0.640625 -0.546875 1.875z" fill-rule="nonzero"></path><path fill="#000000" fill-opacity="0.0" d="m181.34111 131.63255l33.51181 0l0 27.748032l-33.51181 0z" fill-rule="nonzero"></path><path fill="#000000" d="m197.54709 147.83781l1.125 0.140625q-0.171875 1.171875 -0.9375 1.828125q-0.765625 0.65625 -1.859375 0.65625q-1.390625 0 -2.234375 -0.90625q-0.828125 -0.90625 -0.828125 -2.59375q0 -1.09375 0.359375 -1.90625q0.359375 -0.828125 1.09375 -1.234375q0.734375 -0.40625 1.609375 -0.40625q1.09375 0 1.796875 0.5625q0.703125 0.546875 0.890625 1.5625l-1.109375 0.171875q-0.15625 -0.671875 -0.5625 -1.015625q-0.390625 -0.34375 -0.96875 -0.34375q-0.859375 0 -1.40625 0.625q-0.53125 0.609375 -0.53125 1.953125q0 1.359375 0.515625 1.984375q0.515625 0.609375 1.359375 0.609375q0.671875 0 1.125 -0.40625q0.453125 -0.421875 0.5625 -1.28125z" fill-rule="nonzero"></path><path fill="#000000" d="m202.32053 155.30656l-0.796875 0l0 -5.046875q-0.28125 0.28125 -0.75 0.5625q-0.46875 0.265625 -0.828125 0.390625l0 -0.765625q0.65625 -0.296875 1.15625 -0.734375q0.5 -0.453125 0.703125 -0.875l0.515625 0l0 6.46875z" fill-rule="nonzero"></path><path fill="#000000" fill-opacity="0.0" d="m182.96326 94.38976l25.000015 0l0 159.81104l-35.236237 0" fill-rule="nonzero"></path><path stroke="#000000" stroke-width="1.0" stroke-linejoin="round" stroke-linecap="butt" d="m182.96326 94.38976l25.000015 0l0 159.81104l-31.809158 0" fill-rule="evenodd"></path><path fill="#000000" stroke="#000000" stroke-width="1.0" stroke-linecap="butt" d="m176.15411 254.20079l1.124588 -1.124588l-3.0897675 1.124588l3.0897675 1.124588z" fill-rule="evenodd"></path><path fill="#000000" fill-opacity="0.0" d="m69.154854 147.11417l106.70866 0l0 49.795288l-106.70866 0z" fill-rule="nonzero"></path><path stroke="#000000" stroke-width="1.0" stroke-linejoin="round" stroke-linecap="butt" stroke-dasharray="1.0,3.0" d="m69.154854 147.11417l106.70866 0l0 49.795288l-106.70866 0z" fill-rule="nonzero"></path><path fill="#000000" fill-opacity="0.0" d="m133.265 201.47769l33.51181 0l0 27.748032l-33.51181 0z" fill-rule="nonzero"></path><path fill="#000000" d="m149.47098 217.68295l1.125 0.140625q-0.171875 1.171875 -0.9375 1.828125q-0.765625 0.65625 -1.859375 0.65625q-1.390625 0 -2.234375 -0.90625q-0.828125 -0.90625 -0.828125 -2.59375q0 -1.09375 0.359375 -1.90625q0.359375 -0.828125 1.09375 -1.234375q0.734375 -0.40625 1.609375 -0.40625q1.09375 0 1.796875 0.5625q0.703125 0.546875 0.890625 1.5625l-1.109375 0.171875q-0.15625 -0.671875 -0.5625 -1.015625q-0.390625 -0.34375 -0.96875 -0.34375q-0.859375 0 -1.40625 0.625q-0.53125 0.609375 -0.53125 1.953125q0 1.359375 0.515625 1.984375q0.515625 0.609375 1.359375 0.609375q0.671875 0 1.125 -0.40625q0.453125 -0.421875 0.5625 -1.28125z" fill-rule="nonzero"></path><path fill="#000000" d="m155.41629 224.38608l0 0.765625l-4.265625 0q0 -0.28125 0.09375 -0.546875q0.171875 -0.4375 0.53125 -0.859375q0.359375 -0.421875 1.03125 -0.96875q1.046875 -0.875 1.40625 -1.375q0.375 -0.5 0.375 -0.953125q0 -0.46875 -0.34375 -0.78125q-0.328125 -0.328125 -0.859375 -0.328125q-0.578125 0 -0.921875 0.34375q-0.34375 0.34375 -0.34375 0.953125l-0.8125 -0.09375q0.078125 -0.90625 0.625 -1.375q0.546875 -0.484375 1.46875 -0.484375q0.921875 0 1.453125 0.515625q0.546875 0.515625 0.546875 1.265625q0 0.390625 -0.15625 0.765625q-0.15625 0.375 -0.53125 0.796875q-0.359375 0.40625 -1.203125 1.125q-0.71875 0.59375 -0.921875 0.8125q-0.203125 0.21875 -0.328125 0.421875l3.15625 0z" fill-rule="nonzero"></path><path fill="#000000" fill-opacity="0.0" d="m136.71391 197.59842l0 29.51181" fill-rule="nonzero"></path><path stroke="#ff0000" stroke-width="1.0" stroke-linejoin="round" stroke-linecap="butt" d="m136.71391 197.59842l0 26.084732" fill-rule="evenodd"></path><path fill="#ff0000" stroke="#ff0000" stroke-width="1.0" stroke-linecap="butt" d="m136.71391 223.68315l-1.124588 -1.124588l1.124588 3.0897675l1.124588 -3.0897675z" fill-rule="evenodd"></path><path fill="#000000" fill-opacity="0.0" d="m26.259842 44.33858l0 209.85828l45.921257 0" fill-rule="nonzero"></path><path stroke="#000000" stroke-width="1.0" stroke-linejoin="round" stroke-linecap="butt" d="m26.259842 44.33858l0 209.85828l42.49417 0" fill-rule="evenodd"></path><path fill="#000000" stroke="#000000" stroke-width="1.0" stroke-linecap="butt" d="m68.75401 254.19685l-1.1245804 1.1245728l3.0897675 -1.1245728l-3.0897675 -1.124588z" fill-rule="evenodd"></path><path fill="#000000" fill-opacity="0.0" d="m2.9422572 106.27559l25.385826 0l0 16.88189l-25.385826 0z" fill-rule="nonzero"></path><path fill="#000000" d="m17.178932 118.68841q-0.625 0.53125 -1.21875 0.765625q-0.578125 0.21875 -1.25 0.21875q-1.125 0 -1.71875 -0.546875q-0.59375 -0.546875 -0.59375 -1.390625q0 -0.484375 0.21875 -0.890625q0.234375 -0.421875 0.59375 -0.671875q0.375 -0.25 0.828125 -0.375q0.328125 -0.078125 1.015625 -0.171875q1.375 -0.15625 2.03125 -0.390625q0.015625 -0.234375 0.015625 -0.296875q0 -0.703125 -0.328125 -0.984375q-0.4375 -0.390625 -1.296875 -0.390625q-0.8125 0 -1.203125 0.28125q-0.375 0.28125 -0.5625 1.0l-1.109375 -0.140625q0.140625 -0.71875 0.484375 -1.15625q0.359375 -0.453125 1.015625 -0.6875q0.671875 -0.234375 1.53125 -0.234375q0.875 0 1.40625 0.203125q0.546875 0.203125 0.796875 0.515625q0.25 0.296875 0.359375 0.765625q0.046875 0.296875 0.046875 1.0625l0 1.515625q0 1.59375 0.078125 2.015625q0.078125 0.421875 0.28125 0.8125l-1.1875 0q-0.171875 -0.359375 -0.234375 -0.828125zm-0.09375 -2.5625q-0.625 0.265625 -1.859375 0.4375q-0.703125 0.109375 -1.0 0.234375q-0.296875 0.125 -0.453125 0.375q-0.15625 0.234375 -0.15625 0.53125q0 0.453125 0.34375 0.765625q0.34375 0.296875 1.015625 0.296875q0.65625 0 1.171875 -0.28125q0.515625 -0.296875 0.765625 -0.796875q0.171875 -0.375 0.171875 -1.140625l0 -0.421875z" fill-rule="nonzero"></path><path fill="#efefef" d="m72.19554 227.69029l100.53543 0l0 53.039352l-100.53543 0z" fill-rule="nonzero"></path><path stroke="#434343" stroke-width="1.0" stroke-linejoin="round" stroke-linecap="butt" d="m72.19554 227.69029l100.53543 0l0 53.039352l-100.53543 0z" fill-rule="nonzero"></path><path fill="#ea9999" d="m77.0105 262.48688l0 0c0 -3.539856 2.869606 -6.4094543 6.4094467 -6.4094543l0 0c1.6998978 0 3.330162 0.67529297 4.5321655 1.8772888c1.2020035 1.2019958 1.8772888 2.8322754 1.8772888 4.5321655l0 0c0 3.5398254 -2.8696136 6.4094543 -6.4094543 6.4094543l0 0c-3.5398407 0 -6.4094467 -2.869629 -6.4094467 -6.4094543z" fill-rule="nonzero"></path><path stroke="#000000" stroke-width="1.0" stroke-linejoin="round" stroke-linecap="butt" d="m77.0105 262.48688l0 0c0 -3.539856 2.869606 -6.4094543 6.4094467 -6.4094543l0 0c1.6998978 0 3.330162 0.67529297 4.5321655 1.8772888c1.2020035 1.2019958 1.8772888 2.8322754 1.8772888 4.5321655l0 0c0 3.5398254 -2.8696136 6.4094543 -6.4094543 6.4094543l0 0c-3.5398407 0 -6.4094467 -2.869629 -6.4094467 -6.4094543z" fill-rule="nonzero"></path><path fill="#b6d7a8" d="m101.091866 269.0853l0 0c0 -3.5398254 2.869606 -6.4094543 6.4094467 -6.4094543l0 0c1.6998901 0 3.330162 0.67529297 4.5321655 1.8772888c1.2020035 1.2019958 1.8772812 2.8322754 1.8772812 4.5321655l0 0c0 3.539856 -2.869606 6.4094543 -6.4094467 6.4094543l0 0c-3.5398407 0 -6.4094467 -2.8695984 -6.4094467 -6.4094543z" fill-rule="nonzero"></path><path stroke="#000000" stroke-width="1.0" stroke-linejoin="round" stroke-linecap="butt" d="m101.091866 269.0853l0 0c0 -3.5398254 2.869606 -6.4094543 6.4094467 -6.4094543l0 0c1.6998901 0 3.330162 0.67529297 4.5321655 1.8772888c1.2020035 1.2019958 1.8772812 2.8322754 1.8772812 4.5321655l0 0c0 3.539856 -2.869606 6.4094543 -6.4094467 6.4094543l0 0c-3.5398407 0 -6.4094467 -2.8695984 -6.4094467 -6.4094543z" fill-rule="nonzero"></path><path fill="#cfe2f3" d="m91.784775 255.04462l0 0c0 -3.5398407 2.8696136 -6.409439 6.4094543 -6.409439l0 0c1.6998901 0 3.3301544 0.6752777 4.532158 1.8772736c1.2020111 1.2020111 1.8772888 2.8322754 1.8772888 4.5321655l0 0c0 3.539856 -2.869606 6.4094543 -6.4094467 6.4094543l0 0c-3.5398407 0 -6.4094543 -2.8695984 -6.4094543 -6.4094543z" fill-rule="nonzero"></path><path stroke="#000000" stroke-width="1.0" stroke-linejoin="round" stroke-linecap="butt" d="m91.784775 255.04462l0 0c0 -3.5398407 2.8696136 -6.409439 6.4094543 -6.409439l0 0c1.6998901 0 3.3301544 0.6752777 4.532158 1.8772736c1.2020111 1.2020111 1.8772888 2.8322754 1.8772888 4.5321655l0 0c0 3.539856 -2.869606 6.4094543 -6.4094467 6.4094543l0 0c-3.5398407 0 -6.4094543 -2.8695984 -6.4094543 -6.4094543z" fill-rule="nonzero"></path><path fill="#ead1dc" d="m113.91076 255.58398l0 0c0 -3.5398407 2.8696136 -6.409439 6.4094543 -6.409439l0 0c1.6998901 0 3.3301544 0.6752777 4.532158 1.8772736c1.2020111 1.2020111 1.8772888 2.8322754 1.8772888 4.5321655l0 0c0 3.539856 -2.869606 6.4094543 -6.4094467 6.4094543l0 0c-3.5398407 0 -6.4094543 -2.8695984 -6.4094543 -6.4094543z" fill-rule="nonzero"></path><path stroke="#000000" stroke-width="1.0" stroke-linejoin="round" stroke-linecap="butt" d="m113.91076 255.58398l0 0c0 -3.5398407 2.8696136 -6.409439 6.4094543 -6.409439l0 0c1.6998901 0 3.3301544 0.6752777 4.532158 1.8772736c1.2020111 1.2020111 1.8772888 2.8322754 1.8772888 4.5321655l0 0c0 3.539856 -2.869606 6.4094543 -6.4094467 6.4094543l0 0c-3.5398407 0 -6.4094543 -2.8695984 -6.4094543 -6.4094543z" fill-rule="nonzero"></path><path fill="#ffffff" d="m135.34645 258.5551l8.346466 0l0 -8.530151l-1.3911133 -1.391098l-6.955353 0z" fill-rule="nonzero"></path><path fill="#cbcbcb" d="m142.3018 248.63387l0.27822876 1.1128693l1.1128845 0.27822876z" fill-rule="nonzero"></path><path fill="#000000" fill-opacity="0.0" d="m142.3018 248.63387l0.27822876 1.1128693l1.1128845 0.27822876l-1.3911133 -1.391098l-6.955353 0l0 9.921249l8.346466 0l0 -8.530151" fill-rule="nonzero"></path><path stroke="#6d9eeb" stroke-width="1.0" stroke-linejoin="round" stroke-linecap="butt" d="m142.3018 248.63387l0.27822876 1.1128693l1.1128845 0.27822876l-1.3911133 -1.391098l-6.955353 0l0 9.921249l8.346466 0l0 -8.530151" fill-rule="nonzero"></path><path fill="#000000" fill-opacity="0.0" d="m136.78215 250.94751l3.4015808 0" fill-rule="nonzero"></path><path stroke="#6d9eeb" stroke-width="1.0" stroke-linejoin="round" stroke-linecap="butt" d="m136.78215 250.94751l3.4015808 0" fill-rule="nonzero"></path><path fill="#000000" fill-opacity="0.0" d="m136.77953 254.54068l5.480316 0" fill-rule="nonzero"></path><path stroke="#6d9eeb" stroke-width="1.0" stroke-linejoin="round" stroke-linecap="butt" d="m136.77953 254.54068l5.480316 0" fill-rule="nonzero"></path><path fill="#000000" fill-opacity="0.0" d="m136.77953 256.61417l5.480316 0" fill-rule="nonzero"></path><path stroke="#6d9eeb" stroke-width="1.0" stroke-linejoin="round" stroke-linecap="butt" d="m136.77953 256.61417l5.480316 0" fill-rule="nonzero"></path><path fill="#000000" fill-opacity="0.0" d="m136.77953 252.79002l5.480316 0" fill-rule="nonzero"></path><path stroke="#6d9eeb" stroke-width="1.0" stroke-linejoin="round" stroke-linecap="butt" d="m136.77953 252.79002l5.480316 0" fill-rule="nonzero"></path><path fill="#ffffff" d="m147.17323 260.0328l8.346451 0l0 -8.530151l-1.391098 -1.3911133l-6.955353 0z" fill-rule="nonzero"></path><path fill="#cbcbcb" d="m154.12859 250.11154l0.2782135 1.1128845l1.1128845 0.27822876z" fill-rule="nonzero"></path><path fill="#000000" fill-opacity="0.0" d="m154.12859 250.11154l0.2782135 1.1128845l1.1128845 0.27822876l-1.391098 -1.3911133l-6.955353 0l0 9.921265l8.346451 0l0 -8.530151" fill-rule="nonzero"></path><path stroke="#6d9eeb" stroke-width="1.0" stroke-linejoin="round" stroke-linecap="butt" d="m154.12859 250.11154l0.2782135 1.1128845l1.1128845 0.27822876l-1.391098 -1.3911133l-6.955353 0l0 9.921265l8.346451 0l0 -8.530151" fill-rule="nonzero"></path><path fill="#000000" fill-opacity="0.0" d="m148.60892 252.4252l3.4015808 0" fill-rule="nonzero"></path><path stroke="#6d9eeb" stroke-width="1.0" stroke-linejoin="round" stroke-linecap="butt" d="m148.60892 252.4252l3.4015808 0" fill-rule="nonzero"></path><path fill="#000000" fill-opacity="0.0" d="m148.6063 256.01837l5.480316 0" fill-rule="nonzero"></path><path stroke="#6d9eeb" stroke-width="1.0" stroke-linejoin="round" stroke-linecap="butt" d="m148.6063 256.01837l5.480316 0" fill-rule="nonzero"></path><path fill="#000000" fill-opacity="0.0" d="m148.6063 258.09186l5.480316 0" fill-rule="nonzero"></path><path stroke="#6d9eeb" stroke-width="1.0" stroke-linejoin="round" stroke-linecap="butt" d="m148.6063 258.09186l5.480316 0" fill-rule="nonzero"></path><path fill="#000000" fill-opacity="0.0" d="m148.6063 254.26772l5.480316 0" fill-rule="nonzero"></path><path stroke="#6d9eeb" stroke-width="1.0" stroke-linejoin="round" stroke-linecap="butt" d="m148.6063 254.26772l5.480316 0" fill-rule="nonzero"></path><path fill="#ffffff" d="m140.9685 265.67584l8.346451 0l0 -8.530151l-1.391098 -1.391098l-6.955353 0z" fill-rule="nonzero"></path><path fill="#cbcbcb" d="m147.92386 255.7546l0.2782135 1.1128693l1.1128845 0.27822876z" fill-rule="nonzero"></path><path fill="#000000" fill-opacity="0.0" d="m147.92386 255.7546l0.2782135 1.1128693l1.1128845 0.27822876l-1.391098 -1.391098l-6.955353 0l0 9.921249l8.346451 0l0 -8.530151" fill-rule="nonzero"></path><path stroke="#6d9eeb" stroke-width="1.0" stroke-linejoin="round" stroke-linecap="butt" d="m147.92386 255.7546l0.2782135 1.1128693l1.1128845 0.27822876l-1.391098 -1.391098l-6.955353 0l0 9.921249l8.346451 0l0 -8.530151" fill-rule="nonzero"></path><path fill="#000000" fill-opacity="0.0" d="m142.4042 258.06824l3.4015656 0" fill-rule="nonzero"></path><path stroke="#6d9eeb" stroke-width="1.0" stroke-linejoin="round" stroke-linecap="butt" d="m142.4042 258.06824l3.4015656 0" fill-rule="nonzero"></path><path fill="#000000" fill-opacity="0.0" d="m142.40158 261.6614l5.480316 0" fill-rule="nonzero"></path><path stroke="#6d9eeb" stroke-width="1.0" stroke-linejoin="round" stroke-linecap="butt" d="m142.40158 261.6614l5.480316 0" fill-rule="nonzero"></path><path fill="#000000" fill-opacity="0.0" d="m142.40158 263.7349l5.480316 0" fill-rule="nonzero"></path><path stroke="#6d9eeb" stroke-width="1.0" stroke-linejoin="round" stroke-linecap="butt" d="m142.40158 263.7349l5.480316 0" fill-rule="nonzero"></path><path fill="#000000" fill-opacity="0.0" d="m142.40158 259.91077l5.480316 0" fill-rule="nonzero"></path><path stroke="#6d9eeb" stroke-width="1.0" stroke-linejoin="round" stroke-linecap="butt" d="m142.40158 259.91077l5.480316 0" fill-rule="nonzero"></path><path fill="#ffffff" d="m154.4252 268.9908l8.346451 0l0 -8.530151l-1.391098 -1.3911133l-6.955353 0z" fill-rule="nonzero"></path><path fill="#cbcbcb" d="m161.38055 259.06955l0.2782135 1.1128845l1.1128845 0.27822876z" fill-rule="nonzero"></path><path fill="#000000" fill-opacity="0.0" d="m161.38055 259.06955l0.2782135 1.1128845l1.1128845 0.27822876l-1.391098 -1.3911133l-6.955353 0l0 9.921265l8.346451 0l0 -8.530151" fill-rule="nonzero"></path><path stroke="#6d9eeb" stroke-width="1.0" stroke-linejoin="round" stroke-linecap="butt" d="m161.38055 259.06955l0.2782135 1.1128845l1.1128845 0.27822876l-1.391098 -1.3911133l-6.955353 0l0 9.921265l8.346451 0l0 -8.530151" fill-rule="nonzero"></path><path fill="#000000" fill-opacity="0.0" d="m155.86089 261.3832l3.4015808 0" fill-rule="nonzero"></path><path stroke="#6d9eeb" stroke-width="1.0" stroke-linejoin="round" stroke-linecap="butt" d="m155.86089 261.3832l3.4015808 0" fill-rule="nonzero"></path><path fill="#000000" fill-opacity="0.0" d="m155.85826 264.97638l5.480316 0" fill-rule="nonzero"></path><path stroke="#6d9eeb" stroke-width="1.0" stroke-linejoin="round" stroke-linecap="butt" d="m155.85826 264.97638l5.480316 0" fill-rule="nonzero"></path><path fill="#000000" fill-opacity="0.0" d="m155.85826 267.04987l5.480316 0" fill-rule="nonzero"></path><path stroke="#6d9eeb" stroke-width="1.0" stroke-linejoin="round" stroke-linecap="butt" d="m155.85826 267.04987l5.480316 0" fill-rule="nonzero"></path><path fill="#000000" fill-opacity="0.0" d="m155.85826 263.2257l5.480316 0" fill-rule="nonzero"></path><path stroke="#6d9eeb" stroke-width="1.0" stroke-linejoin="round" stroke-linecap="butt" d="m155.85826 263.2257l5.480316 0" fill-rule="nonzero"></path><path fill="#000000" fill-opacity="0.0" d="m72.28609 219.91077l100.53543 0l0 40.566925l-100.53543 0z" fill-rule="nonzero"></path><path fill="#000000" d="m84.51377 241.71075l0 -9.3125l1.21875 0l0 9.3125l-1.21875 0zm3.3436127 0l0 -6.734375l1.03125 0l0 0.953125q0.734375 -1.109375 2.140625 -1.109375q0.609375 0 1.109375 0.21875q0.515625 0.21875 0.765625 0.578125q0.265625 0.34375 0.359375 0.84375q0.0625 0.3125 0.0625 1.109375l0 4.140625l-1.140625 0l0 -4.09375q0 -0.703125 -0.140625 -1.046875q-0.125 -0.34375 -0.46875 -0.546875q-0.328125 -0.21875 -0.78125 -0.21875q-0.734375 0 -1.265625 0.46875q-0.53125 0.453125 -0.53125 1.75l0 3.6875l-1.140625 0zm7.6781006 0l0 -5.859375l-1.0 0l0 -0.875l1.0 0l0 -0.71875q0 -0.6875 0.125 -1.015625q0.171875 -0.4375 0.578125 -0.71875q0.421875 -0.28125 1.171875 -0.28125q0.484375 0 1.0625 0.125l-0.171875 0.984375q-0.359375 -0.0625 -0.671875 -0.0625q-0.515625 0 -0.734375 0.234375q-0.21875 0.21875 -0.21875 0.828125l0 0.625l1.3125 0l0 0.875l-1.3125 0l0 5.859375l-1.140625 0zm3.4217377 0l0 -6.734375l1.03125 0l0 1.015625q0.390625 -0.71875 0.71875 -0.9375q0.34375 -0.234375 0.734375 -0.234375q0.578125 0 1.171875 0.359375l-0.390625 1.0625q-0.421875 -0.25 -0.828125 -0.25q-0.375 0 -0.6875 0.234375q-0.296875 0.21875 -0.421875 0.625q-0.1875 0.609375 -0.1875 1.328125l0 3.53125l-1.140625 0zm8.84462 -0.828125q-0.625 0.53125 -1.21875 0.765625q-0.578125 0.21875 -1.25 0.21875q-1.125 0 -1.71875 -0.546875q-0.59375 -0.546875 -0.59375 -1.390625q0 -0.484375 0.21875 -0.890625q0.234375 -0.421875 0.59375 -0.671875q0.375 -0.25 0.828125 -0.375q0.328125 -0.078125 1.015625 -0.171875q1.375 -0.15625 2.03125 -0.390625q0.015625 -0.234375 0.015625 -0.296875q0 -0.703125 -0.328125 -0.984375q-0.4375 -0.390625 -1.296875 -0.390625q-0.8125 0 -1.203125 0.28125q-0.375 0.28125 -0.5625 1.0l-1.109375 -0.140625q0.140625 -0.71875 0.484375 -1.15625q0.359375 -0.453125 1.015625 -0.6875q0.671875 -0.234375 1.53125 -0.234375q0.875 0 1.40625 0.203125q0.546875 0.203125 0.796875 0.515625q0.25 0.296875 0.359375 0.765625q0.046875 0.296875 0.046875 1.0625l0 1.515625q0 1.59375 0.078125 2.015625q0.078125 0.421875 0.28125 0.8125l-1.1875 0q-0.171875 -0.359375 -0.234375 -0.828125zm-0.09375 -2.5625q-0.625 0.265625 -1.859375 0.4375q-0.703125 0.109375 -1.0 0.234375q-0.296875 0.125 -0.453125 0.375q-0.15625 0.234375 -0.15625 0.53125q0 0.453125 0.34375 0.765625q0.34375 0.296875 1.015625 0.296875q0.65625 0 1.171875 -0.28125q0.515625 -0.296875 0.765625 -0.796875q0.171875 -0.375 0.171875 -1.140625l0 -0.421875zm2.6624756 1.375l1.125 -0.171875q0.09375 0.671875 0.53125 1.046875q0.4375 0.359375 1.21875 0.359375q0.78125 0 1.15625 -0.3125q0.390625 -0.328125 0.390625 -0.765625q0 -0.390625 -0.34375 -0.609375q-0.234375 -0.15625 -1.171875 -0.390625q-1.25 -0.3125 -1.734375 -0.546875q-0.484375 -0.234375 -0.734375 -0.640625q-0.25 -0.40625 -0.25 -0.90625q0 -0.453125 0.203125 -0.828125q0.203125 -0.390625 0.5625 -0.640625q0.265625 -0.203125 0.71875 -0.328125q0.46875 -0.140625 1.0 -0.140625q0.78125 0 1.375 0.234375q0.609375 0.21875 0.890625 0.609375q0.296875 0.390625 0.40625 1.046875l-1.125 0.15625q-0.078125 -0.53125 -0.4375 -0.8125q-0.359375 -0.296875 -1.03125 -0.296875q-0.78125 0 -1.125 0.265625q-0.34375 0.25 -0.34375 0.609375q0 0.21875 0.140625 0.390625q0.140625 0.1875 0.4375 0.3125q0.171875 0.0625 1.015625 0.28125q1.21875 0.328125 1.6875 0.53125q0.484375 0.203125 0.75 0.609375q0.28125 0.390625 0.28125 0.96875q0 0.578125 -0.34375 1.078125q-0.328125 0.5 -0.953125 0.78125q-0.625 0.28125 -1.421875 0.28125q-1.3125 0 -2.0 -0.546875q-0.6875 -0.546875 -0.875 -1.625zm9.6171875 1.0l0.15625 1.0q-0.484375 0.109375 -0.859375 0.109375q-0.625 0 -0.96875 -0.203125q-0.34375 -0.203125 -0.484375 -0.515625q-0.140625 -0.328125 -0.140625 -1.34375l0 -3.890625l-0.828125 0l0 -0.875l0.828125 0l0 -1.671875l1.140625 -0.6875l0 2.359375l1.15625 0l0 0.875l-1.15625 0l0 3.953125q0 0.484375 0.0625 0.625q0.0625 0.140625 0.1875 0.21875q0.140625 0.078125 0.390625 0.078125q0.203125 0 0.515625 -0.03125zm1.1873627 1.015625l0 -6.734375l1.03125 0l0 1.015625q0.390625 -0.71875 0.71875 -0.9375q0.34375 -0.234375 0.734375 -0.234375q0.578125 0 1.171875 0.359375l-0.390625 1.0625q-0.421875 -0.25 -0.828125 -0.25q-0.375 0 -0.6875 0.234375q-0.296875 0.21875 -0.421875 0.625q-0.1875 0.609375 -0.1875 1.328125l0 3.53125l-1.140625 0zm8.875877 0l0 -0.984375q-0.796875 1.140625 -2.1406326 1.140625q-0.59375 0 -1.125 -0.234375q-0.515625 -0.234375 -0.765625 -0.578125q-0.25 -0.34375 -0.34375 -0.84375q-0.078125 -0.328125 -0.078125 -1.0625l0 -4.171875l1.140625 0l0 3.734375q0 0.890625 0.078125 1.203125q0.109375 0.453125 0.453125 0.71875q0.34375 0.25 0.8593826 0.25q0.515625 0 0.96875 -0.265625q0.453125 -0.265625 0.640625 -0.71875q0.1875 -0.453125 0.1875 -1.3125l0 -3.609375l1.140625 0l0 6.734375l-1.015625 0zm7.3812256 -2.46875l1.125 0.140625q-0.171875 1.171875 -0.9375 1.828125q-0.765625 0.65625 -1.859375 0.65625q-1.390625 0 -2.234375 -0.90625q-0.828125 -0.90625 -0.828125 -2.59375q0 -1.09375 0.359375 -1.90625q0.359375 -0.828125 1.09375 -1.234375q0.734375 -0.40625 1.609375 -0.40625q1.09375 0 1.796875 0.5625q0.703125 0.546875 0.890625 1.5625l-1.109375 0.171875q-0.15625 -0.671875 -0.5625 -1.015625q-0.390625 -0.34375 -0.96875 -0.34375q-0.859375 0 -1.40625 0.625q-0.53125 0.609375 -0.53125 1.953125q0 1.359375 0.515625 1.984375q0.515625 0.609375 1.359375 0.609375q0.671875 0 1.125 -0.40625q0.453125 -0.421875 0.5625 -1.28125zm4.7734375 1.453125l0.15625 1.0q-0.484375 0.109375 -0.859375 0.109375q-0.625 0 -0.96875 -0.203125q-0.34375 -0.203125 -0.484375 -0.515625q-0.140625 -0.328125 -0.140625 -1.34375l0 -3.890625l-0.828125 0l0 -0.875l0.828125 0l0 -1.671875l1.140625 -0.6875l0 2.359375l1.15625 0l0 0.875l-1.15625 0l0 3.953125q0 0.484375 0.0625 0.625q0.0625 0.140625 0.1875 0.21875q0.140625 0.078125 0.390625 0.078125q0.203125 0 0.515625 -0.03125zm5.6248627 1.015625l0 -0.984375q-0.796875 1.140625 -2.140625 1.140625q-0.59375 0 -1.125 -0.234375q-0.515625 -0.234375 -0.765625 -0.578125q-0.25 -0.34375 -0.34375 -0.84375q-0.078125 -0.328125 -0.078125 -1.0625l0 -4.171875l1.140625 0l0 3.734375q0 0.890625 0.078125 1.203125q0.109375 0.453125 0.453125 0.71875q0.34375 0.25 0.859375 0.25q0.515625 0 0.96875 -0.265625q0.453125 -0.265625 0.640625 -0.71875q0.1875 -0.453125 0.1875 -1.3125l0 -3.609375l1.140625 0l0 6.734375l-1.015625 0zm2.9749756 0l0 -6.734375l1.03125 0l0 1.015625q0.390625 -0.71875 0.71875 -0.9375q0.34375 -0.234375 0.734375 -0.234375q0.578125 0 1.171875 0.359375l-0.390625 1.0625q-0.421875 -0.25 -0.828125 -0.25q-0.375 0 -0.6875 0.234375q-0.296875 0.21875 -0.421875 0.625q-0.1875 0.609375 -0.1875 1.328125l0 3.53125l-1.140625 0zm9.06337 -2.171875l1.1875 0.140625q-0.28125 1.046875 -1.046875 1.625q-0.75 0.5625 -1.921875 0.5625q-1.484375 0 -2.359375 -0.90625q-0.859375 -0.921875 -0.859375 -2.5625q0 -1.703125 0.875 -2.640625q0.890625 -0.9375 2.28125 -0.9375q1.359375 0 2.203125 0.921875q0.859375 0.921875 0.859375 2.578125q0 0.109375 0 0.3125l-5.03125 0q0.0625 1.109375 0.625 1.703125q0.5625 0.59375 1.40625 0.59375q0.640625 0 1.078125 -0.328125q0.453125 -0.34375 0.703125 -1.0625zm-3.75 -1.84375l3.765625 0q-0.078125 -0.859375 -0.4375 -1.28125q-0.546875 -0.65625 -1.40625 -0.65625q-0.796875 0 -1.328125 0.53125q-0.53125 0.515625 -0.59375 1.40625z" fill-rule="nonzero"></path><path fill="#000000" fill-opacity="0.0" d="m62.05512 119.57218l120.81889 0l0 29.511803l-120.81889 0z" fill-rule="nonzero"></path><path fill="#000000" d="m73.680115 141.37218l-2.46875 -9.3125l1.265625 0l1.421875 6.109375q0.21875 0.953125 0.390625 1.90625q0.359375 -1.5 0.421875 -1.71875l1.765625 -6.296875l1.484375 0l1.328125 4.71875q0.5 1.75 0.734375 3.296875q0.171875 -0.890625 0.453125 -2.03125l1.46875 -5.984375l1.234375 0l-2.546875 9.3125l-1.1875 0l-1.96875 -7.09375q-0.25 -0.890625 -0.296875 -1.09375q-0.140625 0.640625 -0.265625 1.09375l-1.96875 7.09375l-1.265625 0zm10.392227 -3.375q0 -1.875 1.03125 -2.765625q0.875 -0.75 2.125 -0.75q1.390625 0 2.265625 0.90625q0.890625 0.90625 0.890625 2.515625q0 1.296875 -0.390625 2.046875q-0.390625 0.75 -1.140625 1.171875q-0.75 0.40625 -1.625 0.40625q-1.421875 0 -2.296875 -0.90625q-0.859375 -0.90625 -0.859375 -2.625zm1.171875 0q0 1.296875 0.5625 1.953125q0.5625 0.640625 1.421875 0.640625q0.84375 0 1.40625 -0.640625q0.578125 -0.65625 0.578125 -1.984375q0 -1.25 -0.578125 -1.890625q-0.5625 -0.65625 -1.40625 -0.65625q-0.859375 0 -1.421875 0.640625q-0.5625 0.640625 -0.5625 1.9375zm6.6468506 3.375l0 -6.734375l1.03125 0l0 1.015625q0.390625 -0.71875 0.71875 -0.9375q0.34375 -0.234375 0.734375 -0.234375q0.578125 0 1.171875 0.359375l-0.390625 1.0625q-0.421875 -0.25 -0.828125 -0.25q-0.375 0 -0.6875 0.234375q-0.296875 0.21875 -0.421875 0.625q-0.1875 0.609375 -0.1875 1.328125l0 3.53125l-1.140625 0zm4.4539948 0l0 -9.3125l1.140625 0l0 5.3125l2.703125 -2.734375l1.484375 0l-2.578125 2.5l2.84375 4.234375l-1.40625 0l-2.234375 -3.453125l-0.8125 0.78125l0 2.671875l-1.140625 0zm6.9296875 0l0 -5.859375l-1.0 0l0 -0.875l1.0 0l0 -0.71875q0 -0.6875 0.125 -1.015625q0.171875 -0.4375 0.578125 -0.71875q0.421875 -0.28125 1.171875 -0.28125q0.484375 0 1.0625 0.125l-0.171875 0.984375q-0.359375 -0.0625 -0.671875 -0.0625q-0.515625 0 -0.734375 0.234375q-0.21875 0.21875 -0.21875 0.828125l0 0.625l1.3125 0l0 0.875l-1.3125 0l0 5.859375l-1.140625 0zm3.4061127 0l0 -9.3125l1.140625 0l0 9.3125l-1.140625 0zm2.570465 -3.375q0 -1.875 1.03125 -2.765625q0.875 -0.75 2.125 -0.75q1.390625 0 2.265625 0.90625q0.890625 0.90625 0.890625 2.515625q0 1.296875 -0.390625 2.046875q-0.390625 0.75 -1.140625 1.171875q-0.75 0.40625 -1.625 0.40625q-1.421875 0 -2.296875 -0.90625q-0.859375 -0.90625 -0.859375 -2.625zm1.171875 0q0 1.296875 0.5625 1.953125q0.5625 0.640625 1.421875 0.640625q0.84375 0 1.40625 -0.640625q0.578125 -0.65625 0.578125 -1.984375q0 -1.25 -0.578125 -1.890625q-0.5625 -0.65625 -1.40625 -0.65625q-0.859375 0 -1.421875 0.640625q-0.5625 0.640625 -0.5625 1.9375zm7.8968506 3.375l-2.0625 -6.734375l1.1875 0l1.078125 3.890625l0.390625 1.4375q0.03125 -0.109375 0.359375 -1.390625l1.0625 -3.9375l1.171875 0l1.015625 3.90625l0.34375 1.28125l0.375 -1.296875l1.15625 -3.890625l1.109375 0l-2.109375 6.734375l-1.171875 0l-1.078125 -4.03125l-0.265625 -1.15625l-1.359375 5.1875l-1.203125 0zm11.64064 -2.015625l1.125 -0.171875q0.09375 0.671875 0.53125 1.046875q0.4375 0.359375 1.21875 0.359375q0.78125 0 1.15625 -0.3125q0.390625 -0.328125 0.390625 -0.765625q0 -0.390625 -0.34375 -0.609375q-0.234375 -0.15625 -1.171875 -0.390625q-1.25 -0.3125 -1.734375 -0.546875q-0.484375 -0.234375 -0.734375 -0.640625q-0.25 -0.40625 -0.25 -0.90625q0 -0.453125 0.203125 -0.828125q0.203125 -0.390625 0.5625 -0.640625q0.265625 -0.203125 0.71875 -0.328125q0.46875 -0.140625 1.0 -0.140625q0.78125 0 1.375 0.234375q0.609375 0.21875 0.890625 0.609375q0.296875 0.390625 0.40625 1.046875l-1.125 0.15625q-0.078125 -0.53125 -0.4375 -0.8125q-0.359375 -0.296875 -1.03125 -0.296875q-0.78125 0 -1.125 0.265625q-0.34375 0.25 -0.34375 0.609375q0 0.21875 0.140625 0.390625q0.140625 0.1875 0.4375 0.3125q0.171875 0.0625 1.015625 0.28125q1.21875 0.328125 1.6875 0.53125q0.484375 0.203125 0.75 0.609375q0.28125 0.390625 0.28125 0.96875q0 0.578125 -0.34375 1.078125q-0.328125 0.5 -0.953125 0.78125q-0.625 0.28125 -1.421875 0.28125q-1.3125 0 -2.0 -0.546875q-0.6875 -0.546875 -0.875 -1.625zm11.7265625 -0.15625l1.1875 0.140625q-0.28125 1.046875 -1.046875 1.625q-0.75 0.5625 -1.921875 0.5625q-1.484375 0 -2.359375 -0.90625q-0.859375 -0.921875 -0.859375 -2.5625q0 -1.703125 0.875 -2.640625q0.890625 -0.9375 2.28125 -0.9375q1.359375 0 2.203125 0.921875q0.859375 0.921875 0.859375 2.578125q0 0.109375 0 0.3125l-5.03125 0q0.0625 1.109375 0.625 1.703125q0.5625 0.59375 1.40625 0.59375q0.640625 0 1.078125 -0.328125q0.453125 -0.34375 0.703125 -1.0625zm-3.75 -1.84375l3.765625 0q-0.078125 -0.859375 -0.4375 -1.28125q-0.546875 -0.65625 -1.40625 -0.65625q-0.796875 0 -1.328125 0.53125q-0.53125 0.515625 -0.59375 1.40625zm6.5374756 4.015625l0 -6.734375l1.03125 0l0 1.015625q0.390625 -0.71875 0.71875 -0.9375q0.34375 -0.234375 0.734375 -0.234375q0.578125 0 1.171875 0.359375l-0.390625 1.0625q-0.421875 -0.25 -0.828125 -0.25q-0.375 0 -0.6875 0.234375q-0.296875 0.21875 -0.421875 0.625q-0.1875 0.609375 -0.1875 1.328125l0 3.53125l-1.140625 0zm6.3289948 0l-2.5625 -6.734375l1.203125 0l1.4375 4.03125q0.234375 0.65625 0.4375 1.359375q0.15625 -0.53125 0.421875 -1.28125l1.5 -4.109375l1.171875 0l-2.546875 6.734375l-1.0625 0zm4.7890625 -7.984375l0 -1.328125l1.140625 0l0 1.328125l-1.140625 0zm0 7.984375l0 -6.734375l1.140625 0l0 6.734375l-1.140625 0zm7.351715 -2.46875l1.125 0.140625q-0.171875 1.171875 -0.9375 1.828125q-0.765625 0.65625 -1.859375 0.65625q-1.390625 0 -2.234375 -0.90625q-0.828125 -0.90625 -0.828125 -2.59375q0 -1.09375 0.359375 -1.90625q0.359375 -0.828125 1.09375 -1.234375q0.734375 -0.40625 1.609375 -0.40625q1.09375 0 1.796875 0.5625q0.703125 0.546875 0.890625 1.5625l-1.109375 0.171875q-0.15625 -0.671875 -0.5625 -1.015625q-0.390625 -0.34375 -0.96875 -0.34375q-0.859375 0 -1.40625 0.625q-0.53125 0.609375 -0.53125 1.953125q0 1.359375 0.515625 1.984375q0.515625 0.609375 1.359375 0.609375q0.671875 0 1.125 -0.40625q0.453125 -0.421875 0.5625 -1.28125zm6.8828125 0.296875l1.1875 0.140625q-0.28125 1.046875 -1.046875 1.625q-0.75 0.5625 -1.921875 0.5625q-1.484375 0 -2.359375 -0.90625q-0.859375 -0.921875 -0.859375 -2.5625q0 -1.703125 0.875 -2.640625q0.890625 -0.9375 2.28125 -0.9375q1.359375 0 2.203125 0.921875q0.859375 0.921875 0.859375 2.578125q0 0.109375 0 0.3125l-5.03125 0q0.0625 1.109375 0.625 1.703125q0.5625 0.59375 1.40625 0.59375q0.640625 0 1.078125 -0.328125q0.453125 -0.34375 0.703125 -1.0625zm-3.75 -1.84375l3.765625 0q-0.078125 -0.859375 -0.4375 -1.28125q-0.546875 -0.65625 -1.40625 -0.65625q-0.796875 0 -1.328125 0.53125q-0.53125 0.515625 -0.59375 1.40625z" fill-rule="nonzero"></path><path fill="#efefef" d="m62.144356 80.51575l120.8189 0l0 27.748032l-120.8189 0z" fill-rule="nonzero"></path><path stroke="#434343" stroke-width="1.0" stroke-linejoin="round" stroke-linecap="butt" d="m62.144356 80.51575l120.8189 0l0 27.748032l-120.8189 0z" fill-rule="nonzero"></path><path fill="#000000" d="m72.75119 96.20539l1.171875 -0.109375q0.078125 0.703125 0.375 1.15625q0.3125 0.4375 0.9375 0.71875q0.640625 0.265625 1.4375 0.265625q0.703125 0 1.234375 -0.203125q0.546875 -0.203125 0.8125 -0.5625q0.265625 -0.375 0.265625 -0.8125q0 -0.4375 -0.265625 -0.765625q-0.25 -0.328125 -0.828125 -0.546875q-0.375 -0.140625 -1.65625 -0.453125q-1.28125 -0.3125 -1.796875 -0.578125q-0.671875 -0.34375 -1.0 -0.859375q-0.328125 -0.53125 -0.328125 -1.171875q0 -0.703125 0.390625 -1.3125q0.40625 -0.609375 1.171875 -0.921875q0.78125 -0.328125 1.71875 -0.328125q1.03125 0 1.8125 0.34375q0.796875 0.328125 1.21875 0.984375q0.4375 0.640625 0.46875 1.453125l-1.1875 0.09375q-0.09375 -0.890625 -0.640625 -1.328125q-0.546875 -0.453125 -1.625 -0.453125q-1.109375 0 -1.625 0.40625q-0.515625 0.40625 -0.515625 0.984375q0 0.5 0.359375 0.828125q0.359375 0.328125 1.859375 0.671875q1.5 0.328125 2.0625 0.578125q0.8125 0.375 1.1875 0.953125q0.390625 0.578125 0.390625 1.328125q0 0.734375 -0.421875 1.390625q-0.421875 0.65625 -1.21875 1.03125q-0.796875 0.359375 -1.796875 0.359375q-1.265625 0 -2.125 -0.359375q-0.84375 -0.375 -1.328125 -1.109375q-0.484375 -0.75 -0.515625 -1.671875zm13.56163 0.515625l1.125 0.140625q-0.171875 1.171875 -0.9375 1.828125q-0.765625 0.65625 -1.859375 0.65625q-1.390625 0 -2.234375 -0.90625q-0.828125 -0.90625 -0.828125 -2.59375q0 -1.09375 0.359375 -1.90625q0.359375 -0.828125 1.09375 -1.234375q0.734375 -0.40625 1.609375 -0.40625q1.09375 0 1.796875 0.5625q0.703125 0.546875 0.890625 1.5625l-1.109375 0.171875q-0.15625 -0.671875 -0.5625 -1.015625q-0.390625 -0.34375 -0.96875 -0.34375q-0.859375 0 -1.40625 0.625q-0.53125 0.609375 -0.53125 1.953125q0 1.359375 0.515625 1.984375q0.515625 0.609375 1.359375 0.609375q0.671875 0 1.125 -0.40625q0.453125 -0.421875 0.5625 -1.28125zm2.2734375 -5.515625l0 -1.328125l1.140625 0l0 1.328125l-1.140625 0zm0 7.984375l0 -6.734375l1.140625 0l0 6.734375l-1.140625 0zm7.570465 -2.171875l1.1875 0.140625q-0.28125 1.046875 -1.046875 1.625q-0.75 0.5625 -1.921875 0.5625q-1.484375 0 -2.359375 -0.90625q-0.859375 -0.921875 -0.859375 -2.5625q0 -1.703125 0.875 -2.640625q0.890625 -0.9375 2.28125 -0.9375q1.359375 0 2.203125 0.921875q0.859375 0.921875 0.859375 2.578125q0 0.109375 0 0.3125l-5.03125 0q0.0625 1.109375 0.625 1.703125q0.5625 0.59375 1.40625 0.59375q0.640625 0 1.078125 -0.328125q0.453125 -0.34375 0.703125 -1.0625zm-3.75 -1.84375l3.765625 0q-0.078125 -0.859375 -0.4375 -1.28125q-0.546875 -0.65625 -1.40625 -0.65625q-0.796875 0 -1.328125 0.53125q-0.53125 0.515625 -0.59375 1.40625zm6.5531006 4.015625l0 -6.734375l1.03125 0l0 0.953125q0.734375 -1.109375 2.140625 -1.109375q0.609375 0 1.109375 0.21875q0.515625 0.21875 0.765625 0.578125q0.265625 0.34375 0.359375 0.84375q0.0625 0.3125 0.0625 1.109375l0 4.140625l-1.140625 0l0 -4.09375q0 -0.703125 -0.140625 -1.046875q-0.125 -0.34375 -0.46875 -0.546875q-0.328125 -0.21875 -0.78125 -0.21875q-0.734375 0 -1.265625 0.46875q-0.53125 0.453125 -0.53125 1.75l0 3.6875l-1.140625 0zm11.803101 -2.46875l1.125 0.140625q-0.171875 1.171875 -0.9375 1.828125q-0.765625 0.65625 -1.859375 0.65625q-1.390625 0 -2.234375 -0.90625q-0.828125 -0.90625 -0.828125 -2.59375q0 -1.09375 0.359375 -1.90625q0.359375 -0.828125 1.09375 -1.234375q0.734375 -0.40625 1.609375 -0.40625q1.09375 0 1.796875 0.5625q0.703125 0.546875 0.890625 1.5625l-1.109375 0.171875q-0.15625 -0.671875 -0.5625 -1.015625q-0.390625 -0.34375 -0.96875 -0.34375q-0.859375 0 -1.40625 0.625q-0.53125 0.609375 -0.53125 1.953125q0 1.359375 0.515625 1.984375q0.515625 0.609375 1.359375 0.609375q0.671875 0 1.125 -0.40625q0.453125 -0.421875 0.5625 -1.28125zm6.8828125 0.296875l1.1875 0.140625q-0.28125 1.046875 -1.046875 1.625q-0.75 0.5625 -1.921875 0.5625q-1.484375 0 -2.359375 -0.90625q-0.859375 -0.921875 -0.859375 -2.5625q0 -1.703125 0.875 -2.640625q0.890625 -0.9375 2.28125 -0.9375q1.359375 0 2.203125 0.921875q0.859375 0.921875 0.859375 2.578125q0 0.109375 0 0.3125l-5.03125 0q0.0625 1.109375 0.625 1.703125q0.5625 0.59375 1.40625 0.59375q0.640625 0 1.078125 -0.328125q0.453125 -0.34375 0.703125 -1.0625zm-3.75 -1.84375l3.765625 0q-0.078125 -0.859375 -0.4375 -1.28125q-0.546875 -0.65625 -1.40625 -0.65625q-0.796875 0 -1.328125 0.53125q-0.53125 0.515625 -0.59375 1.40625zm10.037338 4.578125l1.125 0.15625q0.0625 0.515625 0.375 0.75q0.4375 0.328125 1.1718674 0.328125q0.78125 0 1.21875 -0.328125q0.43750763 -0.3125 0.5781326 -0.890625q0.09375 -0.34375 0.09375 -1.453125q-0.7500076 0.875 -1.8750076 0.875q-1.3906174 0 -2.1562424 -1.0q-0.75 -1.0 -0.75 -2.40625q0 -0.96875 0.34375 -1.78125q0.359375 -0.8125 1.015625 -1.25q0.65625 -0.453125 1.5624924 -0.453125q1.1875 0 1.9687576 0.96875l0 -0.8125l1.046875 0l0 5.8125q0 1.578125 -0.328125 2.234375q-0.3125 0.65625 -1.015625 1.03125q-0.6875076 0.390625 -1.7031326 0.390625q-1.2031174 0 -1.9531174 -0.546875q-0.734375 -0.53125 -0.71875 -1.625zm0.953125 -4.046875q0 1.3125 0.515625 1.921875q0.53125 0.609375 1.3281174 0.609375q0.796875 0 1.3281326 -0.59375q0.53125 -0.609375 0.53125 -1.90625q0 -1.234375 -0.546875 -1.859375q-0.5468826 -0.640625 -1.3281326 -0.640625q-0.7656174 0 -1.2968674 0.625q-0.53125 0.625 -0.53125 1.84375zm11.068726 2.65625q-0.625 0.53125 -1.21875 0.765625q-0.578125 0.21875 -1.25 0.21875q-1.125 0 -1.71875 -0.546875q-0.59375 -0.546875 -0.59375 -1.390625q0 -0.484375 0.21875 -0.890625q0.234375 -0.421875 0.59375 -0.671875q0.375 -0.25 0.828125 -0.375q0.328125 -0.078125 1.015625 -0.171875q1.375 -0.15625 2.03125 -0.390625q0.015625 -0.234375 0.015625 -0.296875q0 -0.703125 -0.328125 -0.984375q-0.4375 -0.390625 -1.296875 -0.390625q-0.8125 0 -1.203125 0.28125q-0.375 0.28125 -0.5625 1.0l-1.109375 -0.140625q0.140625 -0.71875 0.484375 -1.15625q0.359375 -0.453125 1.015625 -0.6875q0.671875 -0.234375 1.53125 -0.234375q0.875 0 1.40625 0.203125q0.546875 0.203125 0.796875 0.515625q0.25 0.296875 0.359375 0.765625q0.046875 0.296875 0.046875 1.0625l0 1.515625q0 1.59375 0.078125 2.015625q0.078125 0.421875 0.28125 0.8125l-1.1875 0q-0.171875 -0.359375 -0.234375 -0.828125zm-0.09375 -2.5625q-0.625 0.265625 -1.859375 0.4375q-0.703125 0.109375 -1.0 0.234375q-0.296875 0.125 -0.453125 0.375q-0.15625 0.234375 -0.15625 0.53125q0 0.453125 0.34375 0.765625q0.34375 0.296875 1.015625 0.296875q0.65625 0 1.171875 -0.28125q0.515625 -0.296875 0.765625 -0.796875q0.171875 -0.375 0.171875 -1.140625l0 -0.421875zm5.6156006 2.375l0.15625 1.0q-0.484375 0.109375 -0.859375 0.109375q-0.625 0 -0.96875 -0.203125q-0.34375 -0.203125 -0.484375 -0.515625q-0.140625 -0.328125 -0.140625 -1.34375l0 -3.890625l-0.828125 0l0 -0.875l0.828125 0l0 -1.671875l1.140625 -0.6875l0 2.359375l1.15625 0l0 0.875l-1.15625 0l0 3.953125q0 0.484375 0.0625 0.625q0.0625 0.140625 0.1875 0.21875q0.140625 0.078125 0.390625 0.078125q0.203125 0 0.515625 -0.03125zm5.8123627 -1.15625l1.1875 0.140625q-0.28125 1.046875 -1.046875 1.625q-0.75 0.5625 -1.921875 0.5625q-1.484375 0 -2.359375 -0.90625q-0.859375 -0.921875 -0.859375 -2.5625q0 -1.703125 0.875 -2.640625q0.890625 -0.9375 2.28125 -0.9375q1.359375 0 2.203125 0.921875q0.859375 0.921875 0.859375 2.578125q0 0.109375 0 0.3125l-5.03125 0q0.0625 1.109375 0.625 1.703125q0.5625 0.59375 1.40625 0.59375q0.640625 0 1.078125 -0.328125q0.453125 -0.34375 0.703125 -1.0625zm-3.75 -1.84375l3.765625 0q-0.078125 -0.859375 -0.4375 -1.28125q-0.546875 -0.65625 -1.40625 -0.65625q-0.796875 0 -1.328125 0.53125q-0.53125 0.515625 -0.59375 1.40625zm7.7874756 4.015625l-2.0625 -6.734375l1.1875 0l1.078125 3.890625l0.390625 1.4375q0.03125 -0.109375 0.359375 -1.390625l1.0625 -3.9375l1.171875 0l1.015625 3.90625l0.34375 1.28125l0.375 -1.296875l1.15625 -3.890625l1.109375 0l-2.109375 6.734375l-1.171875 0l-1.078125 -4.03125l-0.265625 -1.15625l-1.359375 5.1875l-1.203125 0zm12.781403 -0.828125q-0.625 0.53125 -1.21875 0.765625q-0.578125 0.21875 -1.25 0.21875q-1.125 0 -1.71875 -0.546875q-0.59375 -0.546875 -0.59375 -1.390625q0 -0.484375 0.21875 -0.890625q0.234375 -0.421875 0.59375 -0.671875q0.375 -0.25 0.828125 -0.375q0.328125 -0.078125 1.015625 -0.171875q1.375 -0.15625 2.03125 -0.390625q0.015625 -0.234375 0.015625 -0.296875q0 -0.703125 -0.328125 -0.984375q-0.4375 -0.390625 -1.296875 -0.390625q-0.8125 0 -1.203125 0.28125q-0.375 0.28125 -0.5625 1.0l-1.109375 -0.140625q0.140625 -0.71875 0.484375 -1.15625q0.359375 -0.453125 1.015625 -0.6875q0.671875 -0.234375 1.53125 -0.234375q0.875 0 1.40625 0.203125q0.546875 0.203125 0.796875 0.515625q0.25 0.296875 0.359375 0.765625q0.046875 0.296875 0.046875 1.0625l0 1.515625q0 1.59375 0.078125 2.015625q0.078125 0.421875 0.28125 0.8125l-1.1875 0q-0.171875 -0.359375 -0.234375 -0.828125zm-0.09375 -2.5625q-0.625 0.265625 -1.859375 0.4375q-0.703125 0.109375 -1.0 0.234375q-0.296875 0.125 -0.453125 0.375q-0.15625 0.234375 -0.15625 0.53125q0 0.453125 0.34375 0.765625q0.34375 0.296875 1.015625 0.296875q0.65625 0 1.171875 -0.28125q0.515625 -0.296875 0.765625 -0.796875q0.171875 -0.375 0.171875 -1.140625l0 -0.421875zm3.0687256 5.984375l-0.140625 -1.0625q0.375 0.09375 0.65625 0.09375q0.390625 0 0.609375 -0.125q0.234375 -0.125 0.375 -0.359375q0.109375 -0.171875 0.359375 -0.84375q0.03125 -0.09375 0.09375 -0.28125l-2.5625 -6.75l1.234375 0l1.40625 3.890625q0.265625 0.75 0.484375 1.5625q0.203125 -0.78125 0.46875 -1.53125l1.453125 -3.921875l1.140625 0l-2.5625 6.84375q-0.421875 1.109375 -0.640625 1.53125q-0.3125 0.5625 -0.703125 0.828125q-0.390625 0.265625 -0.9375 0.265625q-0.328125 0 -0.734375 -0.140625z" fill-rule="nonzero"></path><path fill="#000000" fill-opacity="0.0" d="m122.5538 80.51706l0 -18.614174" fill-rule="nonzero"></path><path stroke="#ff0000" stroke-width="1.0" stroke-linejoin="round" stroke-linecap="butt" d="m122.5538 77.08997l0 -15.187088" fill-rule="evenodd"></path><path fill="#ff0000" stroke="#ff0000" stroke-width="1.0" stroke-linecap="butt" d="m122.5538 77.08997l-1.1245804 -1.1245804l1.1245804 3.0897675l1.124588 -3.0897675z" fill-rule="evenodd"></path></g></svg>

