<?xml version="1.0" standalone="yes"?>

<svg version="1.1" viewBox="0.0 0.0 256.6377952755906 203.83464566929135" fill="none" stroke="none" stroke-linecap="square" stroke-miterlimit="10" xmlns="http://www.w3.org/2000/svg" xmlns:xlink="http://www.w3.org/1999/xlink"><clipPath id="p.0"><path d="m0 0l256.6378 0l0 203.83464l-256.6378 0l0 -203.83464z" clip-rule="nonzero"></path></clipPath><g clip-path="url(#p.0)"><path fill="#000000" fill-opacity="0.0" d="m0 0l256.6378 0l0 203.83464l-256.6378 0z" fill-rule="nonzero"></path><path fill="#efefef" d="m75.14173 21.160105l120.8189 0l0 27.748034l-120.8189 0z" fill-rule="nonzero"></path><path stroke="#434343" stroke-width="1.0" stroke-linejoin="round" stroke-linecap="butt" d="m75.14173 21.160105l120.8189 0l0 27.748034l-120.8189 0z" fill-rule="nonzero"></path><path fill="#000000" d="m85.748566 36.849747l1.171875 -0.109375q0.078125 0.703125 0.375 1.15625q0.3125 0.4375 0.9375 0.71875q0.640625 0.265625 1.4375 0.265625q0.703125 0 1.234375 -0.203125q0.546875 -0.203125 0.8125 -0.5625q0.265625 -0.375 0.265625 -0.8125q0 -0.4375 -0.265625 -0.765625q-0.25 -0.328125 -0.828125 -0.546875q-0.375 -0.140625 -1.65625 -0.453125q-1.28125 -0.3125 -1.796875 -0.578125q-0.671875 -0.34375 -1.0 -0.859375q-0.328125 -0.53125 -0.328125 -1.171875q0 -0.703125 0.390625 -1.3125019q0.40625 -0.609375 1.171875 -0.921875q0.78125 -0.328125 1.71875 -0.328125q1.03125 0 1.8125 0.34375q0.796875 0.328125 1.21875 0.984375q0.4375 0.6406269 0.46875 1.4531269l-1.1875 0.09375q-0.09375 -0.890625 -0.640625 -1.3281269q-0.546875 -0.453125 -1.625 -0.453125q-1.109375 0 -1.625 0.40625q-0.515625 0.4062519 -0.515625 0.9843769q0 0.5 0.359375 0.828125q0.359375 0.328125 1.859375 0.671875q1.5 0.328125 2.0625 0.578125q0.8125 0.375 1.1875 0.953125q0.390625 0.578125 0.390625 1.328125q0 0.734375 -0.421875 1.390625q-0.421875 0.65625 -1.21875 1.03125q-0.796875 0.359375 -1.796875 0.359375q-1.265625 0 -2.125 -0.359375q-0.84375 -0.375 -1.328125 -1.109375q-0.484375 -0.75 -0.515625 -1.671875zm13.56163 0.515625l1.125 0.140625q-0.171875 1.171875 -0.9375 1.828125q-0.765625 0.65625 -1.859375 0.65625q-1.390625 0 -2.234375 -0.90625q-0.828125 -0.90625 -0.828125 -2.59375q0 -1.09375 0.359375 -1.90625q0.359375 -0.828125 1.09375 -1.234375q0.734375 -0.40625 1.609375 -0.40625q1.09375 0 1.796875 0.5625q0.703125 0.546875 0.890625 1.5625l-1.109375 0.171875q-0.15625 -0.671875 -0.5625 -1.015625q-0.390625 -0.34375 -0.96875 -0.34375q-0.859375 0 -1.40625 0.625q-0.53125 0.609375 -0.53125 1.953125q0 1.359375 0.515625 1.984375q0.515625 0.609375 1.359375 0.609375q0.671875 0 1.125 -0.40625q0.453125 -0.421875 0.5625 -1.28125zm2.2734375 -5.515627l0 -1.328125l1.140625 0l0 1.328125l-1.140625 0zm0 7.984377l0 -6.734375l1.140625 0l0 6.734375l-1.140625 0zm7.570465 -2.171875l1.1875 0.140625q-0.28125 1.046875 -1.046875 1.625q-0.75 0.5625 -1.921875 0.5625q-1.484375 0 -2.359375 -0.90625q-0.859375 -0.921875 -0.859375 -2.5625q0 -1.703125 0.875 -2.640625q0.890625 -0.9375 2.28125 -0.9375q1.359375 0 2.203125 0.921875q0.859375 0.921875 0.859375 2.578125q0 0.109375 0 0.3125l-5.03125 0q0.0625 1.109375 0.625 1.703125q0.5625 0.59375 1.40625 0.59375q0.640625 0 1.078125 -0.328125q0.453125 -0.34375 0.703125 -1.0625zm-3.75 -1.84375l3.765625 0q-0.078125 -0.859375 -0.4375 -1.28125q-0.546875 -0.65625 -1.40625 -0.65625q-0.796875 0 -1.328125 0.53125q-0.53125 0.515625 -0.59375 1.40625zm6.5531006 4.015625l0 -6.734375l1.03125 0l0 0.953125q0.734375 -1.109375 2.140625 -1.109375q0.609375 0 1.109375 0.21875q0.515625 0.21875 0.765625 0.578125q0.265625 0.34375 0.359375 0.84375q0.0625 0.3125 0.0625 1.109375l0 4.140625l-1.140625 0l0 -4.09375q0 -0.703125 -0.140625 -1.046875q-0.125 -0.34375 -0.46875 -0.546875q-0.328125 -0.21875 -0.78125 -0.21875q-0.734375 0 -1.265625 0.46875q-0.53125 0.453125 -0.53125 1.75l0 3.6875l-1.140625 0zm11.803101 -2.46875l1.125 0.140625q-0.171875 1.171875 -0.9375 1.828125q-0.765625 0.65625 -1.859375 0.65625q-1.390625 0 -2.234375 -0.90625q-0.828125 -0.90625 -0.828125 -2.59375q0 -1.09375 0.359375 -1.90625q0.359375 -0.828125 1.09375 -1.234375q0.734375 -0.40625 1.609375 -0.40625q1.09375 0 1.796875 0.5625q0.703125 0.546875 0.890625 1.5625l-1.109375 0.171875q-0.15625 -0.671875 -0.5625 -1.015625q-0.390625 -0.34375 -0.96875 -0.34375q-0.859375 0 -1.40625 0.625q-0.53125 0.609375 -0.53125 1.953125q0 1.359375 0.515625 1.984375q0.515625 0.609375 1.359375 0.609375q0.671875 0 1.125 -0.40625q0.453125 -0.421875 0.5625 -1.28125zm6.8828125 0.296875l1.1875 0.140625q-0.28125 1.046875 -1.046875 1.625q-0.75 0.5625 -1.921875 0.5625q-1.484375 0 -2.359375 -0.90625q-0.859375 -0.921875 -0.859375 -2.5625q0 -1.703125 0.875 -2.640625q0.890625 -0.9375 2.28125 -0.9375q1.359375 0 2.203125 0.921875q0.859375 0.921875 0.859375 2.578125q0 0.109375 0 0.3125l-5.03125 0q0.0625 1.109375 0.625 1.703125q0.5625 0.59375 1.40625 0.59375q0.640625 0 1.078125 -0.328125q0.453125 -0.34375 0.703125 -1.0625zm-3.75 -1.84375l3.765625 0q-0.078125 -0.859375 -0.4375 -1.28125q-0.546875 -0.65625 -1.40625 -0.65625q-0.796875 0 -1.328125 0.53125q-0.53125 0.515625 -0.59375 1.40625zm10.037338 4.578125l1.125 0.15625q0.0625 0.515625 0.375 0.75q0.4375 0.328125 1.171875 0.328125q0.78125 0 1.21875 -0.328125q0.4375 -0.3125 0.578125 -0.890625q0.09375 -0.34375 0.09375 -1.453125q-0.75 0.875 -1.875 0.875q-1.390625 0 -2.15625 -1.0q-0.75 -1.0 -0.75 -2.40625q0 -0.96875 0.34375 -1.78125q0.359375 -0.8125 1.015625 -1.25q0.65625 -0.453125 1.5625 -0.453125q1.1875 0 1.96875 0.96875l0 -0.8125l1.046875 0l0 5.8125q0 1.578125 -0.328125 2.234375q-0.3125 0.65625 -1.015625 1.03125q-0.6875 0.390625 -1.703125 0.390625q-1.203125 0 -1.953125 -0.546875q-0.734375 -0.53125 -0.71875 -1.625zm0.953125 -4.046875q0 1.3125 0.515625 1.921875q0.53125 0.609375 1.328125 0.609375q0.796875 0 1.328125 -0.59375q0.53125 -0.609375 0.53125 -1.90625q0 -1.234375 -0.546875 -1.859375q-0.546875 -0.640625 -1.328125 -0.640625q-0.765625 0 -1.296875 0.625q-0.53125 0.625 -0.53125 1.84375zm11.068726 2.65625q-0.625 0.53125 -1.21875 0.765625q-0.578125 0.21875 -1.25 0.21875q-1.125 0 -1.71875 -0.546875q-0.59375 -0.546875 -0.59375 -1.390625q0 -0.484375 0.21875 -0.890625q0.234375 -0.421875 0.59375 -0.671875q0.375 -0.25 0.828125 -0.375q0.328125 -0.078125 1.015625 -0.171875q1.375 -0.15625 2.03125 -0.390625q0.015625 -0.234375 0.015625 -0.296875q0 -0.703125 -0.328125 -0.984375q-0.4375 -0.390625 -1.296875 -0.390625q-0.8125 0 -1.203125 0.28125q-0.375 0.28125 -0.5625 1.0l-1.109375 -0.140625q0.140625 -0.71875 0.484375 -1.15625q0.359375 -0.453125 1.015625 -0.6875q0.671875 -0.234375 1.53125 -0.234375q0.875 0 1.40625 0.203125q0.546875 0.203125 0.796875 0.515625q0.25 0.296875 0.359375 0.765625q0.046875 0.296875 0.046875 1.0625l0 1.515625q0 1.59375 0.078125 2.015625q0.078125 0.421875 0.28125 0.8125l-1.1875 0q-0.171875 -0.359375 -0.234375 -0.828125zm-0.09375 -2.5625q-0.625 0.265625 -1.859375 0.4375q-0.703125 0.109375 -1.0 0.234375q-0.296875 0.125 -0.453125 0.375q-0.15625 0.234375 -0.15625 0.53125q0 0.453125 0.34375 0.765625q0.34375 0.296875 1.015625 0.296875q0.65625 0 1.171875 -0.28125q0.515625 -0.296875 0.765625 -0.796875q0.171875 -0.375 0.171875 -1.140625l0 -0.421875zm5.6156006 2.375l0.15625 1.0q-0.484375 0.109375 -0.859375 0.109375q-0.625 0 -0.96875 -0.203125q-0.34375 -0.203125 -0.484375 -0.515625q-0.140625 -0.328125 -0.140625 -1.34375l0 -3.890625l-0.828125 0l0 -0.875l0.828125 0l0 -1.6718769l1.140625 -0.6875l0 2.359377l1.15625 0l0 0.875l-1.15625 0l0 3.953125q0 0.484375 0.0625 0.625q0.0625 0.140625 0.1875 0.21875q0.140625 0.078125 0.390625 0.078125q0.203125 0 0.515625 -0.03125zm5.8123627 -1.15625l1.1875 0.140625q-0.28125 1.046875 -1.046875 1.625q-0.75 0.5625 -1.921875 0.5625q-1.484375 0 -2.359375 -0.90625q-0.859375 -0.921875 -0.859375 -2.5625q0 -1.703125 0.875 -2.640625q0.890625 -0.9375 2.28125 -0.9375q1.359375 0 2.203125 0.921875q0.859375 0.921875 0.859375 2.578125q0 0.109375 0 0.3125l-5.03125 0q0.0625 1.109375 0.625 1.703125q0.5625 0.59375 1.40625 0.59375q0.640625 0 1.078125 -0.328125q0.453125 -0.34375 0.703125 -1.0625zm-3.75 -1.84375l3.765625 0q-0.078125 -0.859375 -0.4375 -1.28125q-0.546875 -0.65625 -1.40625 -0.65625q-0.796875 0 -1.328125 0.53125q-0.53125 0.515625 -0.59375 1.40625zm7.7874756 4.015625l-2.0625 -6.734375l1.1875 0l1.078125 3.890625l0.390625 1.4375q0.03125 -0.109375 0.359375 -1.390625l1.0625 -3.9375l1.171875 0l1.015625 3.90625l0.34375 1.28125l0.375 -1.296875l1.15625 -3.890625l1.109375 0l-2.109375 6.734375l-1.171875 0l-1.078125 -4.03125l-0.265625 -1.15625l-1.359375 5.1875l-1.203125 0zm12.781403 -0.828125q-0.625 0.53125 -1.21875 0.765625q-0.578125 0.21875 -1.25 0.21875q-1.125 0 -1.71875 -0.546875q-0.59375 -0.546875 -0.59375 -1.390625q0 -0.484375 0.21875 -0.890625q0.234375 -0.421875 0.59375 -0.671875q0.375 -0.25 0.828125 -0.375q0.328125 -0.078125 1.015625 -0.171875q1.375 -0.15625 2.03125 -0.390625q0.015625 -0.234375 0.015625 -0.296875q0 -0.703125 -0.328125 -0.984375q-0.4375 -0.390625 -1.296875 -0.390625q-0.8125 0 -1.203125 0.28125q-0.375 0.28125 -0.5625 1.0l-1.109375 -0.140625q0.140625 -0.71875 0.484375 -1.15625q0.359375 -0.453125 1.015625 -0.6875q0.671875 -0.234375 1.53125 -0.234375q0.875 0 1.40625 0.203125q0.546875 0.203125 0.796875 0.515625q0.25 0.296875 0.359375 0.765625q0.046875 0.296875 0.046875 1.0625l0 1.515625q0 1.59375 0.078125 2.015625q0.078125 0.421875 0.28125 0.8125l-1.1875 0q-0.171875 -0.359375 -0.234375 -0.828125zm-0.09375 -2.5625q-0.625 0.265625 -1.859375 0.4375q-0.703125 0.109375 -1.0 0.234375q-0.296875 0.125 -0.453125 0.375q-0.15625 0.234375 -0.15625 0.53125q0 0.453125 0.34375 0.765625q0.34375 0.296875 1.015625 0.296875q0.65625 0 1.171875 -0.28125q0.515625 -0.296875 0.765625 -0.796875q0.171875 -0.375 0.171875 -1.140625l0 -0.421875zm3.0687256 5.984375l-0.140625 -1.0625q0.375 0.09375 0.65625 0.09375q0.390625 0 0.609375 -0.125q0.234375 -0.125 0.375 -0.359375q0.109375 -0.171875 0.359375 -0.84375q0.03125 -0.09375 0.09375 -0.28125l-2.5625 -6.75l1.234375 0l1.40625 3.890625q0.265625 0.75 0.484375 1.5625q0.203125 -0.78125 0.46875 -1.53125l1.453125 -3.921875l1.140625 0l-2.5625 6.84375q-0.421875 1.109375 -0.640625 1.53125q-0.3125 0.5625 -0.703125 0.828125q-0.390625 0.265625 -0.9375 0.265625q-0.328125 0 -0.734375 -0.140625z" fill-rule="nonzero"></path><path fill="#000000" fill-opacity="0.0" d="m165.98425 56.26378l20.818893 0l0 27.748032l-20.818893 0z" fill-rule="nonzero"></path><path fill="#000000" d="m178.15622 72.76592l1.1875 0.140625q-0.28125 1.046875 -1.046875 1.625q-0.75 0.5625 -1.921875 0.5625q-1.484375 0 -2.359375 -0.90625q-0.859375 -0.921875 -0.859375 -2.5625q0 -1.703125 0.875 -2.640625q0.890625 -0.9375 2.28125 -0.9375q1.359375 0 2.203125 0.921875q0.859375 0.921875 0.859375 2.578125q0 0.109375 0 0.3125l-5.03125 0q0.0625 1.109375 0.625 1.703125q0.5625 0.59375 1.40625 0.59375q0.640625 0 1.078125 -0.328125q0.453125 -0.34375 0.703125 -1.0625zm-3.75 -1.84375l3.765625 0q-0.078125 -0.859375 -0.4375 -1.28125q-0.546875 -0.65625 -1.40625 -0.65625q-0.796875 0 -1.328125 0.53125q-0.53125 0.515625 -0.59375 1.40625z" fill-rule="nonzero"></path><path fill="#000000" fill-opacity="0.0" d="m91.06036 99.09843l0 -49.795277" fill-rule="nonzero"></path><path stroke="#000000" stroke-width="1.0" stroke-linejoin="round" stroke-linecap="butt" d="m91.06036 95.67134l0 -46.36819" fill-rule="evenodd"></path><path fill="#000000" stroke="#000000" stroke-width="1.0" stroke-linecap="butt" d="m91.06036 95.67134l-1.1245804 -1.124588l1.1245804 3.0897675l1.124588 -3.0897675z" fill-rule="evenodd"></path><path fill="#000000" fill-opacity="0.0" d="m86.20998 56.26378l20.818893 0l0 27.748032l-20.818893 0z" fill-rule="nonzero"></path><path fill="#000000" d="m94.819435 74.9378l-1.0625 0l0 -9.3125l1.15625 0l0 3.328125q0.71875 -0.90625 1.84375 -0.90625q0.625 0 1.171875 0.25q0.5625 0.25 0.921875 0.703125q0.359375 0.453125 0.5625 1.09375q0.203125 0.640625 0.203125 1.375q0 1.734375 -0.859375 2.6875q-0.859375 0.9375 -2.0625 0.9375q-1.1875 0 -1.875 -1.0l0 0.84375zm-0.015625 -3.421875q0 1.21875 0.34375 1.75q0.53125 0.890625 1.453125 0.890625q0.75 0 1.296875 -0.65625q0.546875 -0.65625 0.546875 -1.9375q0 -1.328125 -0.53125 -1.953125q-0.515625 -0.625 -1.265625 -0.625q-0.75 0 -1.296875 0.65625q-0.546875 0.640625 -0.546875 1.875z" fill-rule="nonzero"></path><path fill="#000000" fill-opacity="0.0" d="m131.06036 99.09843l0 -49.795277" fill-rule="nonzero"></path><path stroke="#000000" stroke-width="1.0" stroke-linejoin="round" stroke-linecap="butt" d="m131.06036 95.67134l0 -46.36819" fill-rule="evenodd"></path><path fill="#000000" stroke="#000000" stroke-width="1.0" stroke-linecap="butt" d="m131.06036 95.67134l-1.1245728 -1.124588l1.1245728 3.0897675l1.124588 -3.0897675z" fill-rule="evenodd"></path><path fill="#000000" fill-opacity="0.0" d="m125.14173 56.26378l20.818901 0l0 27.748032l-20.818901 0z" fill-rule="nonzero"></path><path fill="#000000" d="m137.46915 72.46905l1.125 0.140625q-0.171875 1.171875 -0.9375 1.828125q-0.765625 0.65625 -1.859375 0.65625q-1.390625 0 -2.234375 -0.90625q-0.828125 -0.90625 -0.828125 -2.59375q0 -1.09375 0.359375 -1.90625q0.359375 -0.828125 1.09375 -1.234375q0.734375 -0.40625 1.609375 -0.40625q1.09375 0 1.796875 0.5625q0.703125 0.546875 0.890625 1.5625l-1.109375 0.171875q-0.15625 -0.671875 -0.5625 -1.015625q-0.390625 -0.34375 -0.96875 -0.34375q-0.859375 0 -1.40625 0.625q-0.53125 0.609375 -0.53125 1.953125q0 1.359375 0.515625 1.984375q0.515625 0.609375 1.359375 0.609375q0.671875 0 1.125 -0.40625q0.453125 -0.421875 0.5625 -1.28125z" fill-rule="nonzero"></path><path fill="#efefef" d="m45.43307 99.49344l200.0315 0l0 82.14174l-200.0315 0z" fill-rule="nonzero"></path><path stroke="#434343" stroke-width="1.0" stroke-linejoin="round" stroke-linecap="butt" d="m45.43307 99.49344l200.0315 0l0 82.14174l-200.0315 0z" fill-rule="nonzero"></path><path fill="#ffff00" d="m154.57742 141.55643l13.070877 0l0 13.070877l-13.070877 0z" fill-rule="nonzero"></path><path stroke="#000000" stroke-width="1.0" stroke-linejoin="round" stroke-linecap="butt" d="m154.57742 141.55643l13.070877 0l0 13.070877l-13.070877 0z" fill-rule="nonzero"></path><path fill="#00ff00" d="m178.94489 154.6273l13.070862 0l0 13.070862l-13.070862 0z" fill-rule="nonzero"></path><path stroke="#000000" stroke-width="1.0" stroke-linejoin="round" stroke-linecap="butt" d="m178.94489 154.6273l13.070862 0l0 13.070862l-13.070862 0z" fill-rule="nonzero"></path><path fill="#00ffff" d="m178.94489 128.48557l13.070862 0l0 13.070862l-13.070862 0z" fill-rule="nonzero"></path><path stroke="#000000" stroke-width="1.0" stroke-linejoin="round" stroke-linecap="butt" d="m178.94489 128.48557l13.070862 0l0 13.070862l-13.070862 0z" fill-rule="nonzero"></path><path fill="#ff00ff" d="m205.3517 141.55643l13.070877 0l0 13.070877l-13.070877 0z" fill-rule="nonzero"></path><path stroke="#000000" stroke-width="1.0" stroke-linejoin="round" stroke-linecap="butt" d="m205.3517 141.55643l13.070877 0l0 13.070877l-13.070877 0z" fill-rule="nonzero"></path><path fill="#000000" fill-opacity="0.0" d="m205.3517 148.09186l-13.32283 -13.070862" fill-rule="nonzero"></path><path stroke="#000000" stroke-width="1.0" stroke-linejoin="round" stroke-linecap="butt" d="m205.3517 148.09186l-9.039871 -8.868912" fill-rule="evenodd"></path><path fill="#000000" stroke="#000000" stroke-width="1.0" stroke-linecap="butt" d="m197.46857 138.0439l-4.3961487 -1.9990997l2.0826569 4.357193z" fill-rule="evenodd"></path><path fill="#000000" fill-opacity="0.0" d="m205.3517 148.09186l-13.32283 13.070877" fill-rule="nonzero"></path><path stroke="#000000" stroke-width="1.0" stroke-linejoin="round" stroke-linecap="butt" d="m205.3517 148.09186l-9.039871 8.868927" fill-rule="evenodd"></path><path fill="#000000" stroke="#000000" stroke-width="1.0" stroke-linecap="butt" d="m195.15508 155.78174l-2.0826569 4.357193l4.3961487 -1.9990997z" fill-rule="evenodd"></path><path fill="#000000" fill-opacity="0.0" d="m178.94489 161.16273l-11.307083 -13.070877" fill-rule="nonzero"></path><path stroke="#000000" stroke-width="1.0" stroke-linejoin="round" stroke-linecap="butt" d="m178.94489 161.16273l-7.381668 -8.533127" fill-rule="evenodd"></path><path fill="#000000" stroke="#000000" stroke-width="1.0" stroke-linecap="butt" d="m172.81241 151.54898l-4.2181854 -2.3515015l1.7198029 4.512741z" fill-rule="evenodd"></path><path fill="#000000" fill-opacity="0.0" d="m178.94489 135.021l-11.307083 13.070862" fill-rule="nonzero"></path><path stroke="#000000" stroke-width="1.0" stroke-linejoin="round" stroke-linecap="butt" d="m178.94489 135.021l-7.381668 8.533127" fill-rule="evenodd"></path><path fill="#000000" stroke="#000000" stroke-width="1.0" stroke-linecap="butt" d="m170.31403 142.4735l-1.7198029 4.512741l4.2181854 -2.3514862z" fill-rule="evenodd"></path><path fill="#000000" fill-opacity="0.0" d="m154.57742 148.09186l-14.677155 0.09449768" fill-rule="nonzero"></path><path stroke="#000000" stroke-width="1.0" stroke-linejoin="round" stroke-linecap="butt" d="m154.57742 148.09186l-8.677277 0.055877686" fill-rule="evenodd"></path><path fill="#000000" stroke="#000000" stroke-width="1.0" stroke-linecap="butt" d="m145.88951 146.49603l-4.5273743 1.6809082l4.5486298 1.6224823z" fill-rule="evenodd"></path><path fill="#000000" fill-opacity="0.0" d="m232.15486 148.18636l-13.732285 -0.09449768" fill-rule="nonzero"></path><path stroke="#000000" stroke-width="1.0" stroke-linejoin="round" stroke-linecap="butt" d="m232.15486 148.18636l-7.732437 -0.053207397" fill-rule="evenodd"></path><path fill="#000000" stroke="#000000" stroke-width="1.0" stroke-linecap="butt" d="m224.43379 146.48146l-4.549347 1.6204681l4.5266266 1.6829071z" fill-rule="evenodd"></path><path fill="#fff2cc" d="m57.30971 159.55118l0 0c0 -3.5398407 2.869606 -6.409439 6.4094505 -6.409439l0 0c1.6998901 0 3.3301544 0.6752777 4.5321655 1.8772736c1.2020035 1.2020111 1.8772812 2.8322754 1.8772812 4.5321655l0 0c0 3.5398407 -2.869606 6.4094543 -6.4094467 6.4094543l0 0c-3.5398445 0 -6.4094505 -2.8696136 -6.4094505 -6.4094543z" fill-rule="nonzero"></path><path stroke="#000000" stroke-width="1.0" stroke-linejoin="round" stroke-linecap="butt" d="m57.30971 159.55118l0 0c0 -3.5398407 2.869606 -6.409439 6.4094505 -6.409439l0 0c1.6998901 0 3.3301544 0.6752777 4.5321655 1.8772736c1.2020035 1.2020111 1.8772812 2.8322754 1.8772812 4.5321655l0 0c0 3.5398407 -2.869606 6.4094543 -6.4094467 6.4094543l0 0c-3.5398445 0 -6.4094505 -2.8696136 -6.4094505 -6.4094543z" fill-rule="nonzero"></path><path fill="#b6d7a8" d="m81.391075 166.14961l0 0c0 -3.5398407 2.869606 -6.4094543 6.4094467 -6.4094543l0 0c1.6998978 0 3.330162 0.6752777 4.5321655 1.8772888c1.2020035 1.2019958 1.8772888 2.8322754 1.8772888 4.5321655l0 0c0 3.5398407 -2.8696136 6.409439 -6.4094543 6.409439l0 0c-3.5398407 0 -6.4094467 -2.8695984 -6.4094467 -6.409439z" fill-rule="nonzero"></path><path stroke="#000000" stroke-width="1.0" stroke-linejoin="round" stroke-linecap="butt" d="m81.391075 166.14961l0 0c0 -3.5398407 2.869606 -6.4094543 6.4094467 -6.4094543l0 0c1.6998978 0 3.330162 0.6752777 4.5321655 1.8772888c1.2020035 1.2019958 1.8772888 2.8322754 1.8772888 4.5321655l0 0c0 3.5398407 -2.8696136 6.409439 -6.4094543 6.409439l0 0c-3.5398407 0 -6.4094467 -2.8695984 -6.4094467 -6.409439z" fill-rule="nonzero"></path><path fill="#cfe2f3" d="m72.08399 152.10892l0 0c0 -3.5398407 2.869606 -6.409439 6.4094467 -6.409439l0 0c1.6998901 0 3.330162 0.6752777 4.5321655 1.8772736c1.2020035 1.2020111 1.8772812 2.8322754 1.8772812 4.5321655l0 0c0 3.5398407 -2.869606 6.4094543 -6.4094467 6.4094543l0 0c-3.5398407 0 -6.4094467 -2.8696136 -6.4094467 -6.4094543z" fill-rule="nonzero"></path><path stroke="#000000" stroke-width="1.0" stroke-linejoin="round" stroke-linecap="butt" d="m72.08399 152.10892l0 0c0 -3.5398407 2.869606 -6.409439 6.4094467 -6.409439l0 0c1.6998901 0 3.330162 0.6752777 4.5321655 1.8772736c1.2020035 1.2020111 1.8772812 2.8322754 1.8772812 4.5321655l0 0c0 3.5398407 -2.869606 6.4094543 -6.4094467 6.4094543l0 0c-3.5398407 0 -6.4094467 -2.8696136 -6.4094467 -6.4094543z" fill-rule="nonzero"></path><path fill="#d9d2e9" d="m94.20998 152.6483l0 0c0 -3.5398407 2.869606 -6.4094543 6.4094467 -6.4094543l0 0c1.6998901 0 3.330162 0.6752777 4.5321655 1.8772888c1.2020035 1.2019958 1.8772812 2.8322754 1.8772812 4.5321655l0 0c0 3.5398407 -2.869606 6.409439 -6.4094467 6.409439l0 0c-3.5398407 0 -6.4094467 -2.8695984 -6.4094467 -6.409439z" fill-rule="nonzero"></path><path stroke="#000000" stroke-width="1.0" stroke-linejoin="round" stroke-linecap="butt" d="m94.20998 152.6483l0 0c0 -3.5398407 2.869606 -6.4094543 6.4094467 -6.4094543l0 0c1.6998901 0 3.330162 0.6752777 4.5321655 1.8772888c1.2020035 1.2019958 1.8772812 2.8322754 1.8772812 4.5321655l0 0c0 3.5398407 -2.869606 6.409439 -6.4094467 6.409439l0 0c-3.5398407 0 -6.4094467 -2.8695984 -6.4094467 -6.409439z" fill-rule="nonzero"></path><path fill="#000000" fill-opacity="0.0" d="m32.38845 34.96719l42.4252 0.062992096" fill-rule="nonzero"></path><path stroke="#000000" stroke-width="1.0" stroke-linejoin="round" stroke-linecap="butt" d="m32.38845 34.96719l38.998116 0.057907104" fill-rule="evenodd"></path><path fill="#000000" stroke="#000000" stroke-width="1.0" stroke-linecap="butt" d="m71.386566 35.025097l-1.1262512 1.1229095l3.0914307 -1.1199951l-3.088089 -1.1291695z" fill-rule="evenodd"></path><path fill="#000000" fill-opacity="0.0" d="m34.923885 14.514436l34.582676 0l0 16.88189l-34.582676 0z" fill-rule="nonzero"></path><path fill="#000000" d="m51.291096 26.927254q-0.625 0.53125 -1.21875 0.765625q-0.578125 0.21875 -1.25 0.21875q-1.125 0 -1.71875 -0.546875q-0.59375 -0.546875 -0.59375 -1.390625q0 -0.484375 0.21875 -0.890625q0.234375 -0.421875 0.59375 -0.671875q0.375 -0.25 0.828125 -0.375q0.328125 -0.078125 1.015625 -0.171875q1.375 -0.15625 2.03125 -0.390625q0.015625 -0.234375 0.015625 -0.296875q0 -0.703125 -0.328125 -0.984375q-0.4375 -0.390625 -1.296875 -0.390625q-0.8125 0 -1.203125 0.28125q-0.375 0.28125 -0.5625 1.0l-1.109375 -0.140625q0.140625 -0.71875 0.484375 -1.15625q0.359375 -0.453125 1.015625 -0.6875q0.671875 -0.234375 1.53125 -0.234375q0.875 0 1.40625 0.203125q0.546875 0.203125 0.796875 0.515625q0.25 0.296875 0.359375 0.765625q0.046875 0.296875 0.046875 1.0625l0 1.515625q0 1.59375 0.078125 2.015625q0.078125 0.421875 0.28125 0.8125l-1.1875 0q-0.171875 -0.359375 -0.234375 -0.828125zm-0.09375 -2.5625q-0.625 0.265625 -1.859375 0.4375q-0.703125 0.109375 -1.0 0.234375q-0.296875 0.125 -0.453125 0.375q-0.15625 0.234375 -0.15625 0.53125q0 0.453125 0.34375 0.765625q0.34375 0.296875 1.015625 0.296875q0.65625 0 1.171875 -0.28125q0.515625 -0.296875 0.765625 -0.796875q0.171875 -0.375 0.171875 -1.140625l0 -0.421875z" fill-rule="nonzero"></path><path fill="#000000" d="m57.98482 31.989754l0 0.765625l-4.265625 0q0 -0.28125 0.09375 -0.546875q0.171875 -0.4375 0.53125 -0.859375q0.359375 -0.421875 1.03125 -0.96875q1.046875 -0.875 1.40625 -1.375q0.375 -0.5 0.375 -0.953125q0 -0.46875 -0.34375 -0.78125q-0.328125 -0.328125 -0.859375 -0.328125q-0.578125 0 -0.921875 0.34375q-0.34375 0.34375 -0.34375 0.953125l-0.8125 -0.09375q0.078125 -0.90625 0.625 -1.375q0.546875 -0.484375 1.46875 -0.484375q0.921875 0 1.453125 0.515625q0.546875 0.515625 0.546875 1.265625q0 0.390625 -0.15625 0.765625q-0.15625 0.375 -0.53125 0.796875q-0.359375 0.40625 -1.203125 1.125q-0.71875 0.59375 -0.921875 0.8125q-0.203125 0.21875 -0.328125 0.421875l3.15625 0z" fill-rule="nonzero"></path><path fill="#6d9eeb" d="m11.569553 34.96719l0 0c0 -3.2093372 4.660469 -5.811022 10.409449 -5.811022l0 0c5.7489796 0 10.409449 2.6016846 10.409449 5.811022l0 0c0 3.209343 -4.660469 5.8110237 -10.409449 5.8110237l0 0c-5.7489796 0 -10.409449 -2.6016808 -10.409449 -5.8110237z" fill-rule="nonzero"></path><path stroke="#3c78d8" stroke-width="1.0" stroke-linejoin="round" stroke-linecap="butt" d="m11.569553 34.96719l0 0c0 -3.2093372 4.660469 -5.811022 10.409449 -5.811022l0 0c5.7489796 0 10.409449 2.6016846 10.409449 5.811022l0 0c0 3.209343 -4.660469 5.8110237 -10.409449 5.8110237l0 0c-5.7489796 0 -10.409449 -2.6016808 -10.409449 -5.8110237z" fill-rule="nonzero"></path><path fill="#6d9eeb" d="m16.167978 24.58399l0 0c0 -3.209341 2.6016846 -5.8110237 5.8110237 -5.8110237l0 0c1.5411797 0 3.0192356 0.6122303 4.1090145 1.7020092c1.0897789 1.0897789 1.7020092 2.5678349 1.7020092 4.1090145l0 0c0 3.2093391 -2.6016827 5.8110237 -5.8110237 5.8110237l0 0c-3.2093391 0 -5.8110237 -2.6016846 -5.8110237 -5.8110237z" fill-rule="nonzero"></path><path stroke="#3c78d8" stroke-width="1.0" stroke-linejoin="round" stroke-linecap="butt" d="m16.167978 24.58399l0 0c0 -3.209341 2.6016846 -5.8110237 5.8110237 -5.8110237l0 0c1.5411797 0 3.0192356 0.6122303 4.1090145 1.7020092c1.0897789 1.0897789 1.7020092 2.5678349 1.7020092 4.1090145l0 0c0 3.2093391 -2.6016827 5.8110237 -5.8110237 5.8110237l0 0c-3.2093391 0 -5.8110237 -2.6016846 -5.8110237 -5.8110237z" fill-rule="nonzero"></path><path fill="#ffffff" d="m68.53018 131.12073l8.346458 0l0 -8.530151l-1.3911057 -1.391098l-6.955353 0z" fill-rule="nonzero"></path><path fill="#cbcbcb" d="m75.485535 121.19948l0.27822113 1.1128769l1.1128845 0.27822113z" fill-rule="nonzero"></path><path fill="#000000" fill-opacity="0.0" d="m75.485535 121.19948l0.27822113 1.1128769l1.1128845 0.27822113l-1.3911057 -1.391098l-6.955353 0l0 9.921249l8.346458 0l0 -8.530151" fill-rule="nonzero"></path><path stroke="#6d9eeb" stroke-width="1.0" stroke-linejoin="round" stroke-linecap="butt" d="m75.485535 121.19948l0.27822113 1.1128769l1.1128845 0.27822113l-1.3911057 -1.391098l-6.955353 0l0 9.921249l8.346458 0l0 -8.530151" fill-rule="nonzero"></path><path fill="#000000" fill-opacity="0.0" d="m69.96588 123.51312l3.4015732 0" fill-rule="nonzero"></path><path stroke="#6d9eeb" stroke-width="1.0" stroke-linejoin="round" stroke-linecap="butt" d="m69.96588 123.51312l3.4015732 0" fill-rule="nonzero"></path><path fill="#000000" fill-opacity="0.0" d="m69.96326 127.1063l5.480316 0" fill-rule="nonzero"></path><path stroke="#6d9eeb" stroke-width="1.0" stroke-linejoin="round" stroke-linecap="butt" d="m69.96326 127.1063l5.480316 0" fill-rule="nonzero"></path><path fill="#000000" fill-opacity="0.0" d="m69.96326 129.1798l5.480316 0" fill-rule="nonzero"></path><path stroke="#6d9eeb" stroke-width="1.0" stroke-linejoin="round" stroke-linecap="butt" d="m69.96326 129.1798l5.480316 0" fill-rule="nonzero"></path><path fill="#000000" fill-opacity="0.0" d="m69.96326 125.355644l5.480316 0" fill-rule="nonzero"></path><path stroke="#6d9eeb" stroke-width="1.0" stroke-linejoin="round" stroke-linecap="butt" d="m69.96326 125.355644l5.480316 0" fill-rule="nonzero"></path><path fill="#ffffff" d="m80.35696 132.59842l8.346458 0l0 -8.530151l-1.3911057 -1.3911057l-6.955353 0z" fill-rule="nonzero"></path><path fill="#cbcbcb" d="m87.31231 122.67716l0.27822113 1.1128845l1.1128845 0.27822113z" fill-rule="nonzero"></path><path fill="#000000" fill-opacity="0.0" d="m87.31231 122.67716l0.27822113 1.1128845l1.1128845 0.27822113l-1.3911057 -1.3911057l-6.955353 0l0 9.921257l8.346458 0l0 -8.530151" fill-rule="nonzero"></path><path stroke="#6d9eeb" stroke-width="1.0" stroke-linejoin="round" stroke-linecap="butt" d="m87.31231 122.67716l0.27822113 1.1128845l1.1128845 0.27822113l-1.3911057 -1.3911057l-6.955353 0l0 9.921257l8.346458 0l0 -8.530151" fill-rule="nonzero"></path><path fill="#000000" fill-opacity="0.0" d="m81.79265 124.990814l3.4015808 0" fill-rule="nonzero"></path><path stroke="#6d9eeb" stroke-width="1.0" stroke-linejoin="round" stroke-linecap="butt" d="m81.79265 124.990814l3.4015808 0" fill-rule="nonzero"></path><path fill="#000000" fill-opacity="0.0" d="m81.79002 128.58398l5.480316 0" fill-rule="nonzero"></path><path stroke="#6d9eeb" stroke-width="1.0" stroke-linejoin="round" stroke-linecap="butt" d="m81.79002 128.58398l5.480316 0" fill-rule="nonzero"></path><path fill="#000000" fill-opacity="0.0" d="m81.79002 130.65749l5.480316 0" fill-rule="nonzero"></path><path stroke="#6d9eeb" stroke-width="1.0" stroke-linejoin="round" stroke-linecap="butt" d="m81.79002 130.65749l5.480316 0" fill-rule="nonzero"></path><path fill="#000000" fill-opacity="0.0" d="m81.79002 126.833336l5.480316 0" fill-rule="nonzero"></path><path stroke="#6d9eeb" stroke-width="1.0" stroke-linejoin="round" stroke-linecap="butt" d="m81.79002 126.833336l5.480316 0" fill-rule="nonzero"></path><path fill="#ffffff" d="m74.15223 138.24147l8.346458 0l0 -8.530151l-1.3911057 -1.3911133l-6.955353 0z" fill-rule="nonzero"></path><path fill="#cbcbcb" d="m81.10758 128.3202l0.27822113 1.1128845l1.1128845 0.27822876z" fill-rule="nonzero"></path><path fill="#000000" fill-opacity="0.0" d="m81.10758 128.3202l0.27822113 1.1128845l1.1128845 0.27822876l-1.3911057 -1.3911133l-6.955353 0l0 9.921265l8.346458 0l0 -8.530151" fill-rule="nonzero"></path><path stroke="#6d9eeb" stroke-width="1.0" stroke-linejoin="round" stroke-linecap="butt" d="m81.10758 128.3202l0.27822113 1.1128845l1.1128845 0.27822876l-1.3911057 -1.3911133l-6.955353 0l0 9.921265l8.346458 0l0 -8.530151" fill-rule="nonzero"></path><path fill="#000000" fill-opacity="0.0" d="m75.58793 130.63387l3.4015732 0" fill-rule="nonzero"></path><path stroke="#6d9eeb" stroke-width="1.0" stroke-linejoin="round" stroke-linecap="butt" d="m75.58793 130.63387l3.4015732 0" fill-rule="nonzero"></path><path fill="#000000" fill-opacity="0.0" d="m75.585304 134.22704l5.480316 0" fill-rule="nonzero"></path><path stroke="#6d9eeb" stroke-width="1.0" stroke-linejoin="round" stroke-linecap="butt" d="m75.585304 134.22704l5.480316 0" fill-rule="nonzero"></path><path fill="#000000" fill-opacity="0.0" d="m75.585304 136.30052l5.480316 0" fill-rule="nonzero"></path><path stroke="#6d9eeb" stroke-width="1.0" stroke-linejoin="round" stroke-linecap="butt" d="m75.585304 136.30052l5.480316 0" fill-rule="nonzero"></path><path fill="#000000" fill-opacity="0.0" d="m75.585304 132.47638l5.480316 0" fill-rule="nonzero"></path><path stroke="#6d9eeb" stroke-width="1.0" stroke-linejoin="round" stroke-linecap="butt" d="m75.585304 132.47638l5.480316 0" fill-rule="nonzero"></path><path fill="#ffffff" d="m87.608925 141.55643l8.346458 0l0 -8.530151l-1.3911057 -1.391098l-6.955353 0z" fill-rule="nonzero"></path><path fill="#cbcbcb" d="m94.56428 131.63518l0.27822113 1.1128693l1.1128845 0.27822876z" fill-rule="nonzero"></path><path fill="#000000" fill-opacity="0.0" d="m94.56428 131.63518l0.27822113 1.1128693l1.1128845 0.27822876l-1.3911057 -1.391098l-6.955353 0l0 9.921249l8.346458 0l0 -8.530151" fill-rule="nonzero"></path><path stroke="#6d9eeb" stroke-width="1.0" stroke-linejoin="round" stroke-linecap="butt" d="m94.56428 131.63518l0.27822113 1.1128693l1.1128845 0.27822876l-1.3911057 -1.391098l-6.955353 0l0 9.921249l8.346458 0l0 -8.530151" fill-rule="nonzero"></path><path fill="#000000" fill-opacity="0.0" d="m89.04462 133.94882l3.4015808 0" fill-rule="nonzero"></path><path stroke="#6d9eeb" stroke-width="1.0" stroke-linejoin="round" stroke-linecap="butt" d="m89.04462 133.94882l3.4015808 0" fill-rule="nonzero"></path><path fill="#000000" fill-opacity="0.0" d="m89.04199 137.54199l5.480316 0" fill-rule="nonzero"></path><path stroke="#6d9eeb" stroke-width="1.0" stroke-linejoin="round" stroke-linecap="butt" d="m89.04199 137.54199l5.480316 0" fill-rule="nonzero"></path><path fill="#000000" fill-opacity="0.0" d="m89.04199 139.61548l5.480316 0" fill-rule="nonzero"></path><path stroke="#6d9eeb" stroke-width="1.0" stroke-linejoin="round" stroke-linecap="butt" d="m89.04199 139.61548l5.480316 0" fill-rule="nonzero"></path><path fill="#000000" fill-opacity="0.0" d="m89.04199 135.79134l5.480316 0" fill-rule="nonzero"></path><path stroke="#6d9eeb" stroke-width="1.0" stroke-linejoin="round" stroke-linecap="butt" d="m89.04199 135.79134l5.480316 0" fill-rule="nonzero"></path><path fill="#000000" fill-opacity="0.0" d="m170.98163 123.22966l0.09448242 -73.921265" fill-rule="nonzero"></path><path stroke="#ff0000" stroke-width="1.0" stroke-linejoin="round" stroke-linecap="butt" d="m170.98163 123.22966l0.09010315 -70.49418" fill-rule="evenodd"></path><path fill="#ff0000" stroke="#ff0000" stroke-width="1.0" stroke-linecap="butt" d="m171.07173 52.73548l1.1231537 1.1260223l-1.120636 -3.0912018l-1.12854 3.0883255z" fill-rule="evenodd"></path><path fill="#000000" fill-opacity="0.0" d="m21.979002 40.778214l0 99.779526l23.464567 0" fill-rule="nonzero"></path><path stroke="#000000" stroke-width="1.0" stroke-linejoin="round" stroke-linecap="butt" d="m21.979002 40.778214l0 99.779526l20.037481 0" fill-rule="evenodd"></path><path fill="#000000" stroke="#000000" stroke-width="1.0" stroke-linecap="butt" d="m42.016483 140.55774l-1.1245842 1.124588l3.0897675 -1.124588l-3.0897675 -1.1245728z" fill-rule="evenodd"></path><path fill="#000000" fill-opacity="0.0" d="m-4.5249343 82.22835l31.779528 0l0 16.88189l-31.779528 0z" fill-rule="nonzero"></path><path fill="#000000" d="m10.440702 94.64117q-0.625 0.53125 -1.21875 0.765625q-0.578125 0.21875 -1.2499995 0.21875q-1.125 0 -1.71875 -0.546875q-0.59375 -0.546875 -0.59375 -1.390625q0 -0.484375 0.21875 -0.890625q0.234375 -0.421875 0.59375 -0.671875q0.375 -0.25 0.828125 -0.375q0.328125 -0.078125 1.0156245 -0.171875q1.375 -0.15625 2.03125 -0.390625q0.015625 -0.234375 0.015625 -0.296875q0 -0.703125 -0.328125 -0.984375q-0.4375 -0.390625 -1.296875 -0.390625q-0.8124995 0 -1.2031245 0.28125q-0.375 0.28125 -0.5625 1.0l-1.109375 -0.140625q0.140625 -0.71875 0.484375 -1.15625q0.359375 -0.453125 1.015625 -0.6875q0.6718745 -0.234375 1.5312495 -0.234375q0.875 0 1.40625 0.203125q0.546875 0.203125 0.796875 0.515625q0.25 0.296875 0.359375 0.765625q0.046875 0.296875 0.046875 1.0625l0 1.515625q0 1.59375 0.078125 2.015625q0.078125 0.421875 0.28125 0.8125l-1.1875 0q-0.171875 -0.359375 -0.234375 -0.828125zm-0.09375 -2.5625q-0.625 0.265625 -1.859375 0.4375q-0.7031245 0.109375 -0.9999995 0.234375q-0.296875 0.125 -0.453125 0.375q-0.15625 0.234375 -0.15625 0.53125q0 0.453125 0.34375 0.765625q0.34375 0.296875 1.0156245 0.296875q0.65625 0 1.171875 -0.28125q0.515625 -0.296875 0.765625 -0.796875q0.171875 -0.375 0.171875 -1.140625l0 -0.421875z" fill-rule="nonzero"></path><path fill="#000000" d="m15.962553 100.46929l-0.796875 0l0 -5.046875q-0.28125 0.28125 -0.75 0.5625q-0.46875 0.265625 -0.828125 0.390625l0 -0.765625q0.65625 -0.296875 1.15625 -0.734375q0.5 -0.453125 0.703125 -0.875l0.515625 0l0 6.46875z" fill-rule="nonzero"></path><path fill="#000000" fill-opacity="0.0" d="m45.952755 93.30052l104.09448 0l0 36.818893l-104.09448 0z" fill-rule="nonzero"></path><path fill="#000000" d="m56.171505 115.100525l0 -9.3125l1.21875 0l0 9.3125l-1.21875 0zm3.3436127 0l0 -6.734375l1.03125 0l0 0.953125q0.734375 -1.109375 2.140625 -1.109375q0.609375 0 1.109375 0.21875q0.5156288 0.21875 0.7656288 0.578125q0.265625 0.34375 0.359375 0.84375q0.0625 0.3125 0.0625 1.109375l0 4.140625l-1.1406288 0l0 -4.09375q0 -0.703125 -0.140625 -1.046875q-0.125 -0.34375 -0.46875 -0.546875q-0.328125 -0.21875 -0.78125 -0.21875q-0.734375 0 -1.265625 0.46875q-0.53125 0.453125 -0.53125 1.75l0 3.6875l-1.140625 0zm7.6781044 0l0 -5.859375l-1.0 0l0 -0.875l1.0 0l0 -0.71875q0 -0.6875 0.125 -1.015625q0.171875 -0.4375 0.578125 -0.71875q0.421875 -0.28125 1.171875 -0.28125q0.484375 0 1.0625 0.125l-0.171875 0.984375q-0.359375 -0.0625 -0.671875 -0.0625q-0.515625 0 -0.734375 0.234375q-0.21875 0.21875 -0.21875 0.828125l0 0.625l1.3125 0l0 0.875l-1.3125 0l0 5.859375l-1.140625 0zm3.4217377 0l0 -6.734375l1.03125 0l0 1.015625q0.390625 -0.71875 0.71875 -0.9375q0.34375 -0.234375 0.734375 -0.234375q0.578125 0 1.171875 0.359375l-0.390625 1.0625q-0.421875 -0.25 -0.828125 -0.25q-0.375 0 -0.6875 0.234375q-0.296875 0.21875 -0.421875 0.625q-0.1875 0.609375 -0.1875 1.328125l0 3.53125l-1.140625 0zm8.84462 -0.828125q-0.625 0.53125 -1.21875 0.765625q-0.578125 0.21875 -1.25 0.21875q-1.125 0 -1.71875 -0.546875q-0.59375 -0.546875 -0.59375 -1.390625q0 -0.484375 0.21875 -0.890625q0.234375 -0.421875 0.59375 -0.671875q0.375 -0.25 0.828125 -0.375q0.328125 -0.078125 1.015625 -0.171875q1.375 -0.15625 2.03125 -0.390625q0.015625 -0.234375 0.015625 -0.296875q0 -0.703125 -0.328125 -0.984375q-0.4375 -0.390625 -1.296875 -0.390625q-0.8125 0 -1.203125 0.28125q-0.375 0.28125 -0.5625 1.0l-1.109375 -0.140625q0.140625 -0.71875 0.484375 -1.15625q0.359375 -0.453125 1.015625 -0.6875q0.671875 -0.234375 1.53125 -0.234375q0.875 0 1.40625 0.203125q0.546875 0.203125 0.796875 0.515625q0.25 0.296875 0.359375 0.765625q0.046875 0.296875 0.046875 1.0625l0 1.515625q0 1.59375 0.078125 2.015625q0.078125 0.421875 0.28125 0.8125l-1.1875 0q-0.171875 -0.359375 -0.234375 -0.828125zm-0.09375 -2.5625q-0.625 0.265625 -1.859375 0.4375q-0.703125 0.109375 -1.0 0.234375q-0.296875 0.125 -0.453125 0.375q-0.15625 0.234375 -0.15625 0.53125q0 0.453125 0.34375 0.765625q0.34375 0.296875 1.015625 0.296875q0.65625 0 1.171875 -0.28125q0.515625 -0.296875 0.765625 -0.796875q0.171875 -0.375 0.171875 -1.140625l0 -0.421875zm2.6624756 1.375l1.125 -0.171875q0.09375 0.671875 0.53125 1.046875q0.4375 0.359375 1.21875 0.359375q0.78125 0 1.15625 -0.3125q0.390625 -0.328125 0.390625 -0.765625q0 -0.390625 -0.34375 -0.609375q-0.234375 -0.15625 -1.171875 -0.390625q-1.25 -0.3125 -1.734375 -0.546875q-0.484375 -0.234375 -0.734375 -0.640625q-0.25 -0.40625 -0.25 -0.90625q0 -0.453125 0.203125 -0.828125q0.203125 -0.390625 0.5625 -0.640625q0.265625 -0.203125 0.71875 -0.328125q0.46875 -0.140625 1.0 -0.140625q0.78125 0 1.375 0.234375q0.609375 0.21875 0.890625 0.609375q0.296875 0.390625 0.40625 1.046875l-1.125 0.15625q-0.078125 -0.53125 -0.4375 -0.8125q-0.359375 -0.296875 -1.03125 -0.296875q-0.78125 0 -1.125 0.265625q-0.34375 0.25 -0.34375 0.609375q0 0.21875 0.140625 0.390625q0.140625 0.1875 0.4375 0.3125q0.171875 0.0625 1.015625 0.28125q1.21875 0.328125 1.6875 0.53125q0.484375 0.203125 0.75 0.609375q0.28125 0.390625 0.28125 0.96875q0 0.578125 -0.34375 1.078125q-0.328125 0.5 -0.953125 0.78125q-0.625 0.28125 -1.421875 0.28125q-1.3125 0 -2.0 -0.546875q-0.6875 -0.546875 -0.875 -1.625zm9.6171875 1.0l0.15625 1.0q-0.484375 0.109375 -0.859375 0.109375q-0.625 0 -0.96875 -0.203125q-0.34375 -0.203125 -0.484375 -0.515625q-0.140625 -0.328125 -0.140625 -1.34375l0 -3.890625l-0.828125 0l0 -0.875l0.828125 0l0 -1.671875l1.140625 -0.6875l0 2.359375l1.15625 0l0 0.875l-1.15625 0l0 3.953125q0 0.484375 0.0625 0.625q0.0625 0.140625 0.1875 0.21875q0.140625 0.078125 0.390625 0.078125q0.203125 0 0.515625 -0.03125zm1.1873627 1.015625l0 -6.734375l1.03125 0l0 1.015625q0.390625 -0.71875 0.71875 -0.9375q0.34375 -0.234375 0.734375 -0.234375q0.578125 0 1.171875 0.359375l-0.390625 1.0625q-0.421875 -0.25 -0.828125 -0.25q-0.375 0 -0.6875 0.234375q-0.296875 0.21875 -0.421875 0.625q-0.1875 0.609375 -0.1875 1.328125l0 3.53125l-1.140625 0zm8.87587 0l0 -0.984375q-0.796875 1.140625 -2.140625 1.140625q-0.59375 0 -1.125 -0.234375q-0.515625 -0.234375 -0.765625 -0.578125q-0.25 -0.34375 -0.34375 -0.84375q-0.078125 -0.328125 -0.078125 -1.0625l0 -4.171875l1.140625 0l0 3.734375q0 0.890625 0.078125 1.203125q0.109375 0.453125 0.453125 0.71875q0.34375 0.25 0.859375 0.25q0.515625 0 0.96875 -0.265625q0.453125 -0.265625 0.640625 -0.71875q0.1875 -0.453125 0.1875 -1.3125l0 -3.609375l1.140625 0l0 6.734375l-1.015625 0zm7.3812256 -2.46875l1.125 0.140625q-0.171875 1.171875 -0.9375 1.828125q-0.765625 0.65625 -1.859375 0.65625q-1.390625 0 -2.234375 -0.90625q-0.828125 -0.90625 -0.828125 -2.59375q0 -1.09375 0.359375 -1.90625q0.359375 -0.828125 1.09375 -1.234375q0.734375 -0.40625 1.609375 -0.40625q1.09375 0 1.796875 0.5625q0.703125 0.546875 0.890625 1.5625l-1.109375 0.171875q-0.15625 -0.671875 -0.5625 -1.015625q-0.390625 -0.34375 -0.96875 -0.34375q-0.859375 0 -1.40625 0.625q-0.53125 0.609375 -0.53125 1.953125q0 1.359375 0.515625 1.984375q0.515625 0.609375 1.359375 0.609375q0.671875 0 1.125 -0.40625q0.453125 -0.421875 0.5625 -1.28125zm4.7734375 1.453125l0.15625 1.0q-0.484375 0.109375 -0.859375 0.109375q-0.625 0 -0.96875 -0.203125q-0.34375 -0.203125 -0.484375 -0.515625q-0.140625 -0.328125 -0.140625 -1.34375l0 -3.890625l-0.828125 0l0 -0.875l0.828125 0l0 -1.671875l1.140625 -0.6875l0 2.359375l1.15625 0l0 0.875l-1.15625 0l0 3.953125q0 0.484375 0.0625 0.625q0.0625 0.140625 0.1875 0.21875q0.140625 0.078125 0.390625 0.078125q0.203125 0 0.515625 -0.03125zm5.6248627 1.015625l0 -0.984375q-0.796875 1.140625 -2.140625 1.140625q-0.59375 0 -1.125 -0.234375q-0.515625 -0.234375 -0.765625 -0.578125q-0.25 -0.34375 -0.34375 -0.84375q-0.078125 -0.328125 -0.078125 -1.0625l0 -4.171875l1.140625 0l0 3.734375q0 0.890625 0.078125 1.203125q0.109375 0.453125 0.453125 0.71875q0.34375 0.25 0.859375 0.25q0.515625 0 0.96875 -0.265625q0.453125 -0.265625 0.640625 -0.71875q0.1875 -0.453125 0.1875 -1.3125l0 -3.609375l1.140625 0l0 6.734375l-1.015625 0zm2.9749756 0l0 -6.734375l1.03125 0l0 1.015625q0.390625 -0.71875 0.71875 -0.9375q0.34375 -0.234375 0.734375 -0.234375q0.578125 0 1.171875 0.359375l-0.390625 1.0625q-0.421875 -0.25 -0.828125 -0.25q-0.375 0 -0.6875 0.234375q-0.296875 0.21875 -0.421875 0.625q-0.1875 0.609375 -0.1875 1.328125l0 3.53125l-1.140625 0zm9.06337 -2.171875l1.1875 0.140625q-0.28125 1.046875 -1.046875 1.625q-0.75 0.5625 -1.921875 0.5625q-1.484375 0 -2.359375 -0.90625q-0.859375 -0.921875 -0.859375 -2.5625q0 -1.703125 0.875 -2.640625q0.890625 -0.9375 2.28125 -0.9375q1.359375 0 2.203125 0.921875q0.859375 0.921875 0.859375 2.578125q0 0.109375 0 0.3125l-5.03125 0q0.0625 1.109375 0.625 1.703125q0.5625 0.59375 1.40625 0.59375q0.640625 0 1.078125 -0.328125q0.453125 -0.34375 0.703125 -1.0625zm-3.75 -1.84375l3.765625 0q-0.078125 -0.859375 -0.4375 -1.28125q-0.546875 -0.65625 -1.40625 -0.65625q-0.796875 0 -1.328125 0.53125q-0.53125 0.515625 -0.59375 1.40625z" fill-rule="nonzero"></path><path fill="#000000" fill-opacity="0.0" d="m134.8189 123.632545l106.708664 0l0 49.79528l-106.708664 0z" fill-rule="nonzero"></path><path stroke="#000000" stroke-width="1.0" stroke-linejoin="round" stroke-linecap="butt" stroke-dasharray="1.0,3.0" d="m134.8189 123.632545l106.708664 0l0 49.79528l-106.708664 0z" fill-rule="nonzero"></path><path fill="#000000" fill-opacity="0.0" d="m100.61942 146.23885l33.6063 -22.425194" fill-rule="nonzero"></path><path stroke="#000000" stroke-width="1.0" stroke-linejoin="round" stroke-linecap="butt" stroke-dasharray="1.0,3.0" d="m100.61942 146.23885l33.6063 -22.425194" fill-rule="nonzero"></path><path fill="#000000" fill-opacity="0.0" d="m100.61942 159.05774l34.677162 14.86615" fill-rule="nonzero"></path><path stroke="#000000" stroke-width="1.0" stroke-linejoin="round" stroke-linecap="butt" stroke-dasharray="1.0,3.0" d="m100.61942 159.05774l34.677162 14.86615" fill-rule="nonzero"></path></g></svg>

